<svg width="18" height="20" viewBox="0 0 18 20" fill="none" xmlns="http://www.w3.org/2000/svg">
<path d="M1.97066 1H16.8161C17.349 1 17.7867 1.43775 17.7867 1.97066V13.4854C17.7867 14.0183 17.349 14.456 16.8161 14.456H11.8866V15.5599C11.8866 16.0738 12.3054 16.4925 12.8192 16.4925H13.5805C13.7899 16.4925 13.9612 16.6638 13.9612 16.8732V18.7193C13.9612 18.9287 13.7899 19.1 13.5805 19.1H5.18717C4.97781 19.1 4.80651 18.9287 4.80651 18.7193V16.8732C4.80651 16.6638 4.97781 16.4925 5.18717 16.4925H5.92944C6.44332 16.4925 6.86203 16.0738 6.86203 15.5599V14.4751H1.97066C1.43774 14.4751 0.999994 14.0373 0.999994 13.5044V1.97066C0.999994 1.43775 1.43774 1 1.97066 1ZM16.8161 1.7613H1.97066C1.85646 1.7613 1.74227 1.85647 1.74227 1.98969V10.4782H17.0445V1.97066C17.0445 1.85647 16.9493 1.7613 16.8161 1.7613ZM5.56782 17.2348V18.3197H13.2189V17.2348H5.56782ZM7.35688 16.4925H11.4299C11.2586 16.2261 11.1444 15.9025 11.1444 15.5599V14.4751H7.64237V15.5599C7.64237 15.9025 7.54721 16.2261 7.35688 16.4925ZM1.97066 13.7138H16.8161C16.9303 13.7138 17.0445 13.6186 17.0445 13.4854V11.2015H1.74227V13.4854C1.74227 13.6186 1.83743 13.7138 1.97066 13.7138Z" fill="#B0AED7" stroke="#B0AED7" stroke-width="0.2"/>
<path d="M9.39348 12.9916C9.09916 12.9916 8.86057 12.753 8.86057 12.4587C8.86057 12.1644 9.09916 11.9258 9.39348 11.9258C9.6878 11.9258 9.92639 12.1644 9.92639 12.4587C9.92639 12.753 9.6878 12.9916 9.39348 12.9916Z" fill="#B0AED7" stroke="#B0AED7" stroke-width="0.2"/>
<path d="M14.0755 5.64156L12.7432 6.04125V7.62095C12.7432 8.0587 12.4577 8.43935 12.039 8.57258L11.0683 8.85807C10.4974 9.02936 9.92637 9.10549 9.35539 9.10549C8.78442 9.10549 8.19441 9.02936 7.62343 8.85807L6.6718 8.57258C6.25308 8.43935 5.96759 8.0587 5.96759 7.62095V6.02221L4.71144 5.64156C4.42595 5.56543 4.23563 5.29898 4.23563 5.01349C4.23563 4.70896 4.42595 4.46154 4.71144 4.38541L8.67022 3.20539C9.14604 3.07216 9.64088 3.07216 10.0977 3.20539L14.0564 4.38541C14.3419 4.46154 14.5323 4.728 14.5323 5.01349C14.5513 5.31801 14.361 5.56543 14.0755 5.64156ZM6.7289 7.62095C6.7289 7.73515 6.78599 7.81128 6.90019 7.84934L7.85182 8.13483C8.84152 8.42032 9.88831 8.42032 10.859 8.13483L11.8296 7.84934C11.9248 7.81128 12.0009 7.73515 12.0009 7.62095V6.26964L10.1167 6.82158C9.88831 6.89771 9.64088 6.91675 9.39346 6.91675C9.14604 6.91675 8.91764 6.87868 8.67022 6.82158L6.70986 6.25061V7.62095H6.7289ZM9.88831 3.92863C9.56475 3.83347 9.22217 3.83347 8.87958 3.92863L5.20629 5.01349L8.87958 6.09834C9.20313 6.19351 9.54572 6.19351 9.88831 6.09834L13.5806 5.01349L9.88831 3.92863Z" fill="#B0AED7" stroke="#B0AED7" stroke-width="0.2"/>
</svg>
