<svg width="43" height="44" viewBox="0 0 43 44" fill="none" xmlns="http://www.w3.org/2000/svg">
<path d="M0.0543213 12.0547H7.57604V27.4546H7.09171C4.91072 27.4546 2.73085 27.4546 0.552107 27.4546C0.386178 27.4546 0.215765 27.4793 0.0543213 27.4928L0.0543213 12.0547Z" fill="#9494AE"/>
<path d="M0.0543213 7.86006C0.104773 7.7031 0.159708 7.54839 0.205675 7.39031C0.452314 6.52843 0.997465 5.78237 1.74366 5.28552C2.48986 4.78867 3.38845 4.57343 4.27877 4.67827C6.07259 4.87671 7.50204 6.40819 7.59286 8.23677C7.61304 8.64038 7.59286 9.04623 7.59286 9.53841H0.0543213V7.86006Z" fill="#9494AE"/>
<path d="M38.8569 21.1949C33.8118 18.753 28.9147 18.7676 24.4234 22.2342C20.0005 25.6458 18.3973 30.2582 19.4377 35.8145C19.311 35.8201 19.1776 35.8313 19.0442 35.8313C16.5276 35.8313 14.0103 35.8313 11.4922 35.8313C10.5033 35.8313 10.0347 35.3582 10.0347 34.3627C10.0332 23.5803 10.0325 12.7979 10.0325 2.01557C10.0325 1.02336 10.5067 0.546875 11.4956 0.546875H37.4241C38.3726 0.546875 38.8715 1.02 38.8726 1.94718C38.8771 8.26816 38.8771 14.5895 38.8726 20.9112C38.8738 20.9942 38.8648 21.0772 38.8569 21.1949ZM24.475 4.65921H17.6428C17.1674 4.65921 16.6909 4.64464 16.2178 4.6693C15.9213 4.68279 15.6403 4.80604 15.4296 5.01511C15.2189 5.22417 15.0934 5.50412 15.0776 5.80053C15.0316 6.43958 15.3982 6.96988 16.007 7.11114C16.2115 7.15421 16.4203 7.17377 16.6292 7.16944C21.8418 7.16944 27.0536 7.16944 32.2646 7.16944C32.4735 7.17363 32.6822 7.15445 32.8869 7.11226C33.1357 7.06285 33.3614 6.93286 33.529 6.74237C33.6966 6.55189 33.7967 6.31151 33.8141 6.05839C33.9015 5.23772 33.3656 4.66257 32.4821 4.66145C29.8131 4.65622 27.144 4.65547 24.475 4.65921ZM24.4526 9.68976H16.7391C16.5435 9.68452 16.3478 9.68938 16.1528 9.70433C15.8657 9.73549 15.5993 9.86859 15.402 10.0795C15.2047 10.2903 15.0896 10.565 15.0776 10.8535C15.0428 11.4746 15.4072 12.0015 15.9891 12.1383C16.2073 12.1838 16.43 12.2041 16.6528 12.1989C21.8519 12.1989 27.0499 12.1989 32.2467 12.1989C32.442 12.2029 32.6372 12.1882 32.8297 12.1551C33.1156 12.1091 33.3749 11.9602 33.5586 11.7363C33.7424 11.5125 33.838 11.2292 33.8275 10.9398C33.8275 10.1797 33.3051 9.692 32.4597 9.68976C29.7907 9.68752 27.1216 9.68752 24.4526 9.68976ZM24.4682 14.7192H16.6719C16.5043 14.7152 16.3367 14.7197 16.1696 14.7326C15.8817 14.7596 15.613 14.8891 15.4126 15.0976C15.2121 15.3061 15.0933 15.5796 15.0776 15.8684C15.0361 16.5063 15.4139 17.0444 16.0149 17.1745C16.2338 17.2176 16.4566 17.2379 16.6797 17.235C21.8638 17.235 27.0476 17.235 32.231 17.235C32.4541 17.238 32.6769 17.2177 32.8958 17.1745C33.1303 17.1264 33.3438 17.0063 33.5068 16.8311C33.6698 16.6558 33.7741 16.4341 33.8051 16.1968C33.9385 15.3425 33.3948 14.7259 32.4754 14.7237C29.806 14.7147 27.1377 14.7192 24.4682 14.7192ZM18.3468 19.7486C17.691 19.7486 17.034 19.7396 16.3781 19.7486C15.6124 19.7621 15.0776 20.2744 15.0697 20.9819C15.0619 21.6893 15.581 22.2387 16.3456 22.2532C17.6573 22.2768 18.9713 22.2801 20.283 22.2532C21.0959 22.2353 21.5802 21.7039 21.5589 20.9527C21.5376 20.2229 21.0409 19.7643 20.2326 19.7497C19.6048 19.7396 18.9758 19.7486 18.3468 19.7486Z" fill="#9494AE"/>
<path d="M32.3105 43.3653C27.0019 43.3653 21.801 39.7194 21.6597 32.6517C21.5476 26.8532 26.4985 22.0346 32.3542 22.0469C38.2099 22.0592 43.1015 26.8532 42.9983 32.6551C42.8817 39.6118 37.7503 43.3855 32.3105 43.3653ZM31.4898 33.7987C31.4237 33.7718 31.4069 33.7695 31.399 33.7606C30.9214 33.2134 30.4472 32.663 29.9651 32.1192C29.4281 31.5127 28.6612 31.4275 28.1107 31.9073C27.5603 32.3872 27.5333 33.1406 28.0737 33.7718C28.8645 34.6963 29.6594 35.6179 30.4584 36.5365C31.1244 37.2977 31.9562 37.2753 32.5886 36.4771C33.379 35.4804 34.1582 34.4758 34.943 33.4747C35.7087 32.4959 36.48 31.5194 37.239 30.535C37.6057 30.0586 37.6281 29.5182 37.3332 29.0507C37.0384 28.5831 36.5148 28.3443 35.9935 28.5248C35.6712 28.6462 35.3874 28.8518 35.1717 29.1202C33.9283 30.6628 32.7164 32.2324 31.4898 33.7987Z" fill="#9494AE"/>
<path d="M0.502808 29.9883H7.14107C7.08838 30.1486 7.05362 30.2764 7.00429 30.3975C6.36188 31.9391 5.71162 33.4862 5.07593 35.0356C4.84498 35.5962 4.49294 35.9841 3.84268 35.9897C3.17 35.9965 2.81235 35.6063 2.57355 35.0244C1.94123 33.475 1.2876 31.9323 0.646313 30.3874C0.599226 30.2742 0.562228 30.1565 0.502808 29.9883Z" fill="#9494AE"/>
</svg>
