<svg width="24" height="24" viewBox="0 0 24 24" fill="none" xmlns="http://www.w3.org/2000/svg">
<path d="M12 22.5C11.0058 22.4988 10.0527 22.1033 9.34966 21.4003C8.64666 20.6973 8.25119 19.7442 8.25 18.75H9.75C9.75 19.3467 9.98705 19.919 10.409 20.341C10.831 20.7629 11.4033 21 12 21C12.5967 21 13.169 20.7629 13.591 20.341C14.0129 19.919 14.25 19.3467 14.25 18.75H15.75C15.7488 19.7442 15.3533 20.6973 14.6503 21.4003C13.9473 22.1033 12.9942 22.4988 12 22.5Z" fill="#9494AE"/>
<path d="M19.5 15.138V9C19.5 7.01088 18.7098 5.10322 17.3033 3.6967C15.8968 2.29018 13.9891 1.5 12 1.5C10.0109 1.5 8.10321 2.29018 6.69668 3.6967C5.29016 5.10322 4.49998 7.01088 4.49998 9V15.138C3.99997 15.3141 3.57843 15.6615 3.31001 16.1187C3.04158 16.5758 2.94361 17.1132 3.03344 17.6356C3.12327 18.1581 3.39511 18.6319 3.8008 18.9731C4.2065 19.3144 4.71986 19.501 5.24998 19.5H18.75C19.2801 19.501 19.7935 19.3144 20.1992 18.9731C20.6049 18.6319 20.8767 18.1581 20.9665 17.6356C21.0564 17.1132 20.9584 16.5758 20.69 16.1187C20.4215 15.6615 20 15.3141 19.5 15.138ZM5.99998 9C5.99998 7.4087 6.63213 5.88258 7.75734 4.75736C8.88256 3.63214 10.4087 3 12 3C13.5913 3 15.1174 3.63214 16.2426 4.75736C17.3678 5.88258 18 7.4087 18 9V15H5.99998V9ZM18.75 18H5.24998C5.05107 18 4.86031 17.921 4.71965 17.7803C4.579 17.6397 4.49998 17.4489 4.49998 17.25C4.49998 17.0511 4.579 16.8603 4.71965 16.7197C4.86031 16.579 5.05107 16.5 5.24998 16.5H18.75C18.9489 16.5 19.1397 16.579 19.2803 16.7197C19.421 16.8603 19.5 17.0511 19.5 17.25C19.5 17.4489 19.421 17.6397 19.2803 17.7803C19.1397 17.921 18.9489 18 18.75 18Z" fill="#9494AE"/>
</svg>
