<svg width="16" height="16" viewBox="0 0 16 16" fill="none" xmlns="http://www.w3.org/2000/svg">
<path d="M15.07 13.7834C14.9972 13.9755 14.952 14.1854 14.847 14.3566C14.5123 14.8965 13.9971 15.0495 13.3962 14.9847C13.0234 14.9451 12.7229 14.7684 12.461 14.5036C10.8603 12.8874 9.25812 11.2728 7.65432 9.6598C7.6123 9.61165 7.57292 9.56124 7.53634 9.5088C7.47381 9.56888 7.43173 9.60762 7.39122 9.64834L2.50865 14.5637C2.02256 15.0531 1.17622 15.1471 0.592204 14.7775C-0.0716513 14.3581 -0.201827 13.3545 0.326347 12.7189C0.376687 12.6584 0.431746 12.6003 0.487199 12.5458C2.11774 10.9038 3.74853 9.26201 5.37959 7.62053C5.42344 7.58349 5.47027 7.55018 5.5196 7.52092C5.45628 7.45254 5.42168 7.41301 5.38471 7.37585C3.7547 5.73331 2.12429 4.09117 0.493491 2.44943C0.240442 2.19675 0.0908302 1.8579 0.0741854 1.49977C0.0575406 1.14164 0.175073 0.790253 0.403583 0.514961C0.632093 0.239669 0.954978 0.0604772 1.30851 0.012755C1.66203 -0.0349672 2.02051 0.0522477 2.31319 0.257185C2.38855 0.31244 2.45907 0.374064 2.52399 0.441387C4.13906 2.05678 5.75347 3.6731 7.36723 5.29033C7.416 5.33895 7.46083 5.39113 7.52061 5.45517C7.57055 5.40734 7.61264 5.36979 7.65236 5.32947C9.25851 3.71197 10.8649 2.0946 12.4716 0.477358C13.2637 -0.319534 14.5627 -0.0112127 14.8714 1.04973C15.0267 1.58336 14.915 2.06798 14.5174 2.4684C12.9089 4.09065 11.2994 5.71131 9.68876 7.33039C9.64707 7.37229 9.60106 7.40945 9.54442 7.46005C9.59516 7.51341 9.63291 7.5557 9.67303 7.59602C11.2724 9.1985 12.8738 10.7998 14.4773 12.3999C14.7644 12.6853 14.9862 12.9956 15.0692 13.3968L15.07 13.7834Z" fill="white"/>
</svg>
