<svg width="16" height="16" viewBox="0 0 16 16" fill="none" xmlns="http://www.w3.org/2000/svg">
<path d="M8.00009 3.67498C8.40006 3.67498 8.7243 3.35074 8.7243 2.95077C8.7243 2.5508 8.40006 2.22656 8.00009 2.22656C7.60012 2.22656 7.27588 2.5508 7.27588 2.95077C7.27588 3.35074 7.60012 3.67498 8.00009 3.67498Z" fill="white"/>
<path d="M4.96493 4.94156C5.24771 4.6587 5.24764 4.20016 4.96478 3.91738C4.68193 3.6346 4.22338 3.63467 3.94061 3.91753C3.65783 4.20038 3.65789 4.65893 3.94075 4.9417C4.22361 5.22448 4.68215 5.22442 4.96493 4.94156Z" fill="white"/>
<path d="M2.9642 8.69061C3.36417 8.69061 3.68841 8.36637 3.68841 7.9664C3.68841 7.56643 3.36417 7.24219 2.9642 7.24219C2.56423 7.24219 2.23999 7.56643 2.23999 7.9664C2.23999 8.36637 2.56423 8.69061 2.9642 8.69061Z" fill="white"/>
<path d="M13.0359 8.71014C13.4358 8.71014 13.7601 8.3859 13.7601 7.98593C13.7601 7.58596 13.4358 7.26172 13.0359 7.26172C12.6359 7.26172 12.3116 7.58596 12.3116 7.98593C12.3116 8.3859 12.6359 8.71014 13.0359 8.71014Z" fill="white"/>
<path d="M12.0662 4.94568C12.349 4.66286 12.349 4.20432 12.0662 3.9215C11.7834 3.63869 11.3248 3.63869 11.042 3.92151C10.7592 4.20432 10.7592 4.66286 11.042 4.94568C11.3248 5.2285 11.7834 5.2285 12.0662 4.94568Z" fill="white"/>
<path d="M8 0C3.58737 0 0 3.58737 0 8C0 12.4126 3.58737 16 8 16C12.4126 16 16 12.4126 16 8C16 3.58737 12.4126 0 8 0ZM8 1.36421C11.6547 1.36421 14.6358 4.34526 14.6358 8C14.6358 8.70737 14.5179 9.39789 14.3158 10.0379H10.0547C9.83579 9.38105 9.33053 8.87579 8.67368 8.65684V5.69263C8.67368 5.32211 8.37053 5.01895 8 5.01895C7.62947 5.01895 7.32632 5.32211 7.32632 5.69263V8.67368C6.66947 8.89263 6.16421 9.39789 5.94526 10.0547H1.68421C1.48211 9.41474 1.36421 8.72421 1.36421 8.01684C1.36421 4.34526 4.34526 1.36421 8 1.36421ZM8 9.90316C8.45474 9.90316 8.82526 10.2737 8.82526 10.7284C8.82526 11.1832 8.45474 11.5537 8 11.5537C7.54526 11.5537 7.17474 11.1832 7.17474 10.7284C7.17474 10.2737 7.54526 9.90316 8 9.90316ZM8 14.6358C5.57474 14.6358 3.46947 13.3389 2.30737 11.4021H5.92842C6.21474 12.2779 7.02316 12.9179 8 12.9179C8.97684 12.9179 9.78526 12.2779 10.0716 11.4021H13.6926C12.5305 13.3389 10.4253 14.6358 8 14.6358Z" fill="white"/>
</svg>
