<svg width="23" height="23" viewBox="0 0 23 23" fill="none" xmlns="http://www.w3.org/2000/svg">
<path d="M0.646284 22.6031C0.882604 22.6031 1.10984 22.4728 1.22194 22.2473C1.82713 21.0349 2.79665 20.0169 3.96916 19.341C4.47992 19.6231 5.03184 19.8457 5.61659 19.9982C5.67062 20.0121 5.72515 20.0189 5.77868 20.0189C6.06474 20.0189 6.32555 19.8268 6.40104 19.537C6.49016 19.1936 6.28364 18.8421 5.93976 18.7528C3.38417 18.0885 1.59889 15.7783 1.59889 13.1336C1.59889 9.93317 4.2027 7.32935 7.40363 7.32935C10.6046 7.32935 13.2084 9.93317 13.2084 13.1336C13.2084 15.135 12.1767 16.9766 10.5207 18.0314C10.5119 18.036 10.5038 18.0415 10.496 18.0471C10.2627 18.1943 10.0173 18.3261 9.76078 18.4402C9.43609 18.5841 9.29015 18.9648 9.43457 19.289C9.57874 19.6137 9.95872 19.7607 10.2834 19.6152C10.4723 19.5317 10.6546 19.4372 10.8333 19.3385C12.0929 20.0621 13.1076 21.1697 13.7048 22.4985C13.8118 22.7371 14.0466 22.8785 14.2918 22.8785C14.3799 22.8785 14.4693 22.8603 14.5554 22.8215C14.8788 22.676 15.0234 22.2953 14.878 21.9714C14.2526 20.5807 13.2412 19.3951 11.9854 18.5445C13.55 17.2174 14.4948 15.2489 14.4948 13.1336C14.4948 9.2237 11.3133 6.04297 7.40338 6.04297C3.49349 6.04297 0.312506 9.2237 0.312506 13.1336C0.312506 15.2718 1.27193 17.2275 2.82391 18.5432C1.661 19.3319 0.699304 20.4131 0.0713888 21.6727C-0.087168 21.9911 0.0415963 22.3768 0.359467 22.5359C0.451622 22.5819 0.549584 22.6031 0.646284 22.6031Z" fill="#B0AED7"/>
<path d="M5.34608 15.0359C5.74803 15.3515 6.51784 15.7224 7.42803 15.7224C8.0567 15.7224 8.75177 15.5459 9.43877 15.0525C9.72786 14.8458 9.79401 14.4438 9.58647 14.155C9.37969 13.8661 8.97774 13.8002 8.68916 14.0078C7.40581 14.9288 6.26612 14.1199 6.13786 14.0217C5.85836 13.8058 5.45591 13.8548 5.23752 14.1328C5.01811 14.412 5.06659 14.8162 5.34608 15.0359Z" fill="#B0AED7"/>
<path d="M6.38663 11.7406C6.38663 11.3235 6.04705 10.9844 5.62995 10.9844C5.21286 10.9844 4.87378 11.3235 4.87378 11.7406C4.87378 12.1576 5.21286 12.4967 5.62995 12.4967C6.04705 12.4967 6.38663 12.1576 6.38663 11.7406Z" fill="#B0AED7"/>
<path d="M9.93401 11.7406C9.93401 11.3235 9.59467 10.9844 9.17783 10.9844C8.76048 10.9844 8.4209 11.3235 8.4209 11.7406C8.4209 12.1576 8.76048 12.4967 9.17783 12.4967C9.59467 12.4967 9.93401 12.1576 9.93401 11.7406Z" fill="#B0AED7"/>
<path d="M14.092 6.75886C14.348 6.51219 14.3556 6.10519 14.1089 5.84918C13.6396 5.3619 13.3911 4.79483 13.3911 4.20933C13.3911 2.5975 15.235 1.28588 17.5007 1.28588C19.7672 1.28588 21.6106 2.59725 21.6106 4.20933C21.6106 5.82116 19.767 7.13228 17.5007 7.13228C17.022 7.13228 16.5522 7.07345 16.1053 6.95731L15.8129 6.88182L14.3263 7.94905C14.037 8.15608 13.9711 8.55828 14.1783 8.84661C14.3038 9.02158 14.5013 9.115 14.701 9.115C14.831 9.115 14.9618 9.07586 15.0757 8.99431L16.0805 8.27323C16.5418 8.37018 17.018 8.41916 17.5005 8.41916C20.4759 8.41916 22.897 6.53087 22.897 4.20983C22.897 1.88854 20.4759 0 17.5005 0C14.525 0 12.1047 1.88804 12.1047 4.20933C12.1047 5.13441 12.4776 6.01026 13.1826 6.74195C13.4295 6.99796 13.8367 7.00528 14.092 6.75886Z" fill="#B0AED7"/>
<path d="M16.0536 4.20947C16.0536 3.85423 15.7652 3.56641 15.4102 3.56641H15.3903C15.0353 3.56641 14.7571 3.85423 14.7571 4.20947C14.7571 4.56496 15.055 4.85279 15.4102 4.85279C15.7655 4.85279 16.0536 4.56496 16.0536 4.20947Z" fill="#B0AED7"/>
<path d="M18.2082 4.20947C18.2082 3.85423 17.9199 3.56641 17.5647 3.56641H17.5225C17.1675 3.56641 16.9006 3.85423 16.9006 4.20947C16.9006 4.56496 17.2097 4.85279 17.5647 4.85279C17.9201 4.85279 18.2082 4.56496 18.2082 4.20947Z" fill="#B0AED7"/>
<path d="M20.3399 4.20947C20.3399 3.85423 20.0521 3.56641 19.6971 3.56641H19.6769C19.3217 3.56641 19.0437 3.85423 19.0437 4.20947C19.0437 4.56496 19.3419 4.85279 19.6971 4.85279C20.0521 4.85279 20.3399 4.56496 20.3399 4.20947Z" fill="#B0AED7"/>
</svg>
