<svg width="19" height="19" viewBox="0 0 19 19" fill="none" xmlns="http://www.w3.org/2000/svg">
<path d="M10.9115 18.0253C10.6671 17.92 10.3972 17.8509 10.1833 17.7019C9.5722 17.276 9.37335 16.4693 9.67986 15.7923C9.83088 15.4588 10.0925 15.1877 10.4204 15.025C10.7484 14.8622 11.1225 14.8177 11.4794 14.8991C12.1898 15.0556 12.7111 15.7185 12.7055 16.4584C12.701 16.8186 12.5742 17.1665 12.3459 17.4452C12.1177 17.7238 11.8016 17.9166 11.4493 17.9919C11.4103 18.0004 11.3722 18.015 11.3337 18.0267L10.9115 18.0253Z" fill="#7A5DF8"/>
<path d="M18.02 16.5805C17.879 16.8847 17.6383 16.9763 17.3111 16.9726C16.1856 16.9594 15.0597 16.9674 13.9338 16.9674H13.7425V15.9115H13.9155C15.047 15.9115 16.1791 15.9195 17.3106 15.9064C17.6397 15.9026 17.879 15.9943 18.0191 16.2989L18.02 16.5805Z" fill="#7A5DF8"/>
<path d="M13.7618 6.90116V0.639345C13.7622 0.193214 13.9569 0 14.4068 0C15.0508 0 15.6956 0 16.3413 0C16.7173 0 16.9289 0.213428 16.9289 0.589984C16.9289 4.79399 16.9289 8.99799 16.9289 13.202C16.9289 13.5875 16.7173 13.7962 16.3286 13.7967C15.6704 13.7967 15.0137 13.7967 14.3583 13.7967C13.9719 13.7967 13.7622 13.5861 13.7622 13.1978C13.7619 11.0989 13.7618 9.00003 13.7618 6.90116Z" fill="#7A5DF8"/>
<path d="M12.7059 8.00915C12.7059 9.72692 12.7059 11.4447 12.7059 13.1625C12.7059 13.5992 12.509 13.7976 12.0755 13.798C11.4305 13.798 10.7857 13.798 10.141 13.798C9.75132 13.798 9.53931 13.5893 9.53931 13.2048C9.53931 9.72786 9.53931 6.25111 9.53931 2.77452C9.53931 2.39843 9.75085 2.18453 10.1255 2.18359C10.7878 2.18359 11.4501 2.18359 12.1127 2.18359C12.4967 2.18359 12.7059 2.39608 12.7059 2.7858C12.7063 4.52676 12.7063 6.26788 12.7059 8.00915Z" fill="#7A5DF8"/>
<path d="M5.31588 9.02647C5.31588 7.6547 5.31588 6.28293 5.31588 4.91116C5.31588 4.49794 5.5185 4.29344 5.92702 4.29297H7.8789C8.27567 4.29297 8.48205 4.5017 8.48205 4.90411C8.48205 7.66551 8.48205 10.4268 8.48205 13.1879C8.48205 13.5884 8.27567 13.799 7.87843 13.799C7.22216 13.799 6.56574 13.799 5.90916 13.799C5.52414 13.799 5.31541 13.587 5.31494 13.1982C5.31525 11.8076 5.31557 10.417 5.31588 9.02647Z" fill="#7A5DF8"/>
<path d="M4.26001 10.0988C4.26001 11.1246 4.26001 12.1503 4.26001 13.1761C4.26001 13.5889 4.05646 13.7934 3.64888 13.7938C2.99825 13.7938 2.34762 13.7938 1.69699 13.7938C1.30069 13.7938 1.09479 13.5851 1.09479 13.1827C1.09479 11.1255 1.09479 9.06816 1.09479 7.01066C1.09479 6.60966 1.30069 6.40281 1.69887 6.40234C2.35514 6.40234 3.01157 6.40234 3.66815 6.40234C4.0527 6.40234 4.26142 6.61436 4.26142 7.00361C4.26111 8.03596 4.26064 9.06769 4.26001 10.0988Z" fill="#7A5DF8"/>
<path d="M8.50226 15.9102V16.9661H0.597892C0.166334 16.9661 -0.107268 16.6159 0.0403452 16.2487C0.121204 16.0452 0.278689 15.9366 0.494938 15.9121C0.541913 15.9095 0.588996 15.9095 0.63597 15.9121H8.50226V15.9102Z" fill="#7A5DF8"/>
</svg>
