<svg width="17" height="17" viewBox="0 0 17 17" fill="none" xmlns="http://www.w3.org/2000/svg">
<path d="M8.99976 17H8.00202C7.96004 16.9879 7.91725 16.9789 7.87397 16.973C6.6879 16.8919 5.56045 16.5864 4.52488 16.0066C1.73328 14.4405 0.214212 12.0505 0.0171576 8.85336C-0.0833935 7.3413 0.259607 5.83277 1.00409 4.51278C2.56431 1.72796 4.95349 0.212513 8.14503 0.0154974C9.67781 -0.078854 11.1383 0.25865 12.4877 0.999745C14.8842 2.31817 16.3437 4.32518 16.8661 7.02078C16.9281 7.34457 16.9559 7.675 17 8.00212V8.99967C16.9875 9.04668 16.9781 9.09443 16.9717 9.14265C16.8886 10.3281 16.5755 11.4511 16.0018 12.4898C14.6798 14.8831 12.6719 16.3487 9.98212 16.8653C9.65827 16.926 9.32735 16.9543 8.99976 17ZM6.37736 8.4959C6.37736 9.34756 6.37985 10.2 6.37736 11.0505C6.37736 11.2882 6.43431 11.4902 6.6509 11.6145C6.8675 11.7388 7.07287 11.6814 7.27449 11.5555C8.63392 10.7017 9.99626 9.84924 11.3615 8.998C11.7968 8.72575 11.8005 8.27686 11.3682 8.00586C10.0007 7.15018 8.63281 6.29506 7.26452 5.4405C7.06829 5.31788 6.87041 5.26302 6.65672 5.38189C6.44304 5.50076 6.37445 5.70277 6.37569 5.94176C6.37944 6.79301 6.37736 7.64466 6.37736 8.4959Z" fill="white"/>
</svg>
