<svg width="18" height="22" viewBox="0 0 18 22" fill="none" xmlns="http://www.w3.org/2000/svg">
<path d="M8.32949 21.4259C7.64141 21.1621 6.95446 20.8949 6.26526 20.6356C4.91036 20.1254 3.55489 19.6173 2.19886 19.1113C1.79697 18.9609 1.67456 18.7849 1.67456 18.3601C1.67456 17.9839 1.67456 17.6071 1.67456 17.231C1.6767 17.2107 1.68006 17.1905 1.68462 17.1706C1.82939 17.1605 1.98087 17.1617 2.12899 17.1382C3.01326 17.0001 3.66836 16.3774 3.74605 15.4949C3.80754 14.793 3.80754 14.0872 3.74605 13.3854C3.65829 12.4038 2.86011 11.7348 1.86796 11.7174C1.81206 11.7174 1.75617 11.7174 1.68686 11.7174C1.68686 11.2049 1.65723 10.7035 1.6958 10.2083C1.7271 9.80804 2.15303 9.59843 2.55603 9.74711C3.45036 10.0769 4.34469 10.4139 5.23902 10.7488C6.21664 11.1149 7.19537 11.4849 8.17354 11.8438C8.32837 11.8997 8.38147 11.9701 8.38147 12.14C8.37476 15.2355 8.37309 18.331 8.37644 21.4265L8.32949 21.4259Z" fill="#7A5DF8"/>
<path d="M9.62848 21.4271C9.62848 18.3316 9.62736 15.2361 9.62512 12.1406C9.62512 11.988 9.65754 11.9087 9.81237 11.8516C11.6651 11.1641 13.5168 10.472 15.3673 9.77513C15.9346 9.56272 16.3242 9.83102 16.3253 10.438C16.3253 10.8556 16.3253 11.2726 16.3253 11.6951C16.1085 11.7197 15.8994 11.7253 15.6993 11.7695C14.9168 11.9416 14.317 12.5744 14.255 13.3871C14.196 14.089 14.196 14.7947 14.255 15.4966C14.3433 16.4681 15.142 17.1399 16.118 17.1584C16.1794 17.1584 16.2404 17.1584 16.3164 17.1584C16.3164 17.6413 16.3348 18.1086 16.3097 18.5709C16.2946 18.8464 16.0928 19.0052 15.8374 19.1002C14.8458 19.468 13.8559 19.8414 12.8659 20.2131L9.78275 21.3735C9.74418 21.388 9.70897 21.4092 9.67096 21.4294L9.62848 21.4271Z" fill="#7A5DF8"/>
<path d="M8.99239 7.11438C8.28832 7.11271 7.60059 6.90214 7.01628 6.50934C6.43196 6.11655 5.97736 5.55919 5.71003 4.90784C5.4427 4.2565 5.37467 3.54048 5.51455 2.85045C5.65444 2.16042 5.99595 1.52742 6.49583 1.03161C6.99571 0.535798 7.63149 0.199482 8.32264 0.0652496C9.01379 -0.068983 9.72924 0.00490553 10.3784 0.277558C11.0275 0.550211 11.5811 1.00936 11.9691 1.59687C12.3571 2.18438 12.5621 2.87381 12.558 3.57787C12.5519 4.51898 12.1734 5.41938 11.5052 6.08213C10.837 6.74488 9.93351 7.11603 8.99239 7.11438Z" fill="#7A5DF8"/>
<path d="M4.12671 8.98077C4.65269 8.50007 5.23456 8.14234 5.84885 7.82261C6.18423 7.64766 6.45364 7.63704 6.82144 7.82261C8.37477 8.61913 9.93258 8.54926 11.4501 7.68902C11.5008 7.65465 11.5596 7.63423 11.6206 7.62981C11.6816 7.6254 11.7428 7.63714 11.7978 7.66387C12.5603 7.98349 13.2642 8.42799 13.8805 8.97909C13.7933 9.01654 13.729 9.04729 13.6625 9.07244C12.1775 9.6314 10.6918 10.187 9.20538 10.7392C9.09167 10.7822 8.96707 10.7869 8.85045 10.7527C7.32953 10.1937 5.81252 9.62022 4.29495 9.05064C4.24465 9.03443 4.19322 9.0104 4.12671 8.98077Z" fill="#7A5DF8"/>
<path d="M2.51297 14.4585C2.51297 14.7234 2.51633 14.9883 2.51297 15.2533C2.50682 15.6356 2.24859 15.9006 1.86906 15.9028C1.63248 15.9127 1.39551 15.8998 1.16142 15.8642C0.812427 15.7936 0.501668 15.5969 0.288458 15.3117C0.0752475 15.0266 -0.0254821 14.6729 0.00549642 14.3182C0.036745 13.9634 0.195557 13.6319 0.452502 13.3852C0.709446 13.1386 1.0471 12.9934 1.40289 12.9767C1.55604 12.9705 1.70975 12.9722 1.86347 12.9767C2.24467 12.9839 2.50682 13.2416 2.51353 13.6211C2.51633 13.9001 2.51297 14.1795 2.51297 14.4585Z" fill="#7A5DF8"/>
<path d="M15.4886 14.417C15.4886 14.1526 15.4847 13.8877 15.4886 13.6233C15.4947 13.2432 15.7541 12.9777 16.1319 12.976C16.3679 12.9659 16.6043 12.9786 16.8379 13.014C17.186 13.0837 17.4964 13.2791 17.7097 13.5629C17.9231 13.8466 18.0246 14.199 17.9949 14.5528C17.9659 14.9065 17.8098 15.2377 17.5555 15.4853C17.3012 15.7328 16.9659 15.8799 16.6115 15.8993C16.4438 15.9072 16.2761 15.9072 16.1085 15.8993C15.9428 15.898 15.7844 15.8311 15.668 15.7132C15.5516 15.5954 15.4867 15.4362 15.4875 15.2705C15.4841 14.9877 15.4886 14.7015 15.4886 14.417Z" fill="#7A5DF8"/>
</svg>
