<svg width="20" height="19" viewBox="0 0 20 19" fill="none" xmlns="http://www.w3.org/2000/svg">
<path d="M19.1742 2.03382H16.0718L10.0595 0.0296958C9.93795 -0.0108229 9.80632 -0.00985816 9.68531 0.0324742L3.96724 2.03382H0.578838C0.259165 2.03382 0 2.29299 0 2.61266V15.6878C0 16.0075 0.259165 16.2667 0.578838 16.2667H5.81103V17.4333H4.06545C3.74577 17.4333 3.48661 17.6925 3.48661 18.0122C3.48661 18.3318 3.74577 18.591 4.06545 18.591H15.6876C16.0073 18.591 16.2664 18.3318 16.2664 18.0122C16.2664 17.6925 16.0073 17.4333 15.6876 17.4333H13.942V16.2666H19.1742C19.4939 16.2666 19.753 16.0075 19.753 15.6878V2.61266C19.753 2.29295 19.4939 2.03382 19.1742 2.03382ZM6.67824 4.14045C9.77881 5.22816 9.73586 5.22542 9.87651 5.22542C10.0105 5.22542 9.96766 5.22816 13.0748 4.19065V5.7018L9.87651 6.93203L6.67824 5.7018V4.14045ZM9.88107 1.1905L14.1477 2.6127L9.88107 4.0349L5.81763 2.6127L9.88107 1.1905ZM12.7843 17.4333H6.9687V16.2666H12.7843L12.7843 17.4333ZM18.5954 15.109C16.0442 15.109 5.01185 15.109 1.15768 15.109V3.1915H3.96685L5.52057 3.7353V6.09935C5.52057 6.33883 5.66806 6.55362 5.8916 6.6396C9.75419 8.12895 9.72289 8.13107 9.87651 8.13107C10.0301 8.13107 10.0005 8.13223 13.8614 6.6396C14.085 6.55362 14.2325 6.33883 14.2325 6.09935V3.80476L15.3994 3.41578V6.6805C15.3994 7.00017 15.6586 7.25934 15.9782 7.25934C16.2979 7.25934 16.5571 7.00017 16.5571 6.6805V3.1915H18.5954V15.109Z" fill="white"/>
<path d="M5.22766 9.88281H2.90324C2.58357 9.88281 2.3244 10.142 2.3244 10.4617V12.7861C2.3244 13.1057 2.58357 13.3649 2.90324 13.3649H5.22766C5.54733 13.3649 5.8065 13.1057 5.8065 12.7861V10.4617C5.8065 10.142 5.54733 9.88281 5.22766 9.88281ZM4.64882 12.2072H3.48208V11.0405H4.64882V12.2072Z" fill="white"/>
<path d="M7.5521 9.88281C7.23243 9.88281 6.97327 10.142 6.97327 10.4617C6.97327 10.7813 7.23243 11.0405 7.5521 11.0405H16.8498C17.1695 11.0405 17.4287 10.7813 17.4287 10.4617C17.4287 10.142 17.1695 9.88281 16.8498 9.88281H7.5521Z" fill="white"/>
<path d="M16.8498 12.207H7.5521C7.23243 12.207 6.97327 12.4662 6.97327 12.7859C6.97327 13.1055 7.23243 13.3647 7.5521 13.3647H16.8498C17.1695 13.3647 17.4287 13.1055 17.4287 12.7859C17.4287 12.4662 17.1695 12.207 16.8498 12.207Z" fill="white"/>
</svg>
