<svg width="15" height="20" viewBox="0 0 15 20" fill="none" xmlns="http://www.w3.org/2000/svg">
<path d="M12.8261 2.60871H11.8443C11.5751 1.84961 10.8502 1.30434 10 1.30434H9.2361C8.96692 0.545157 8.24157 0 7.3913 0C6.54102 0 5.81567 0.545157 5.54653 1.30434H4.78262C3.93239 1.30434 3.2075 1.84961 2.93828 2.60867H1.95653C0.877696 2.60871 0 3.48641 0 4.56524V18.0435C0 19.1223 0.877696 20 1.95653 20H12.8261C13.9049 20 14.7826 19.1223 14.7826 18.0435V4.56524C14.7826 3.48641 13.9049 2.60871 12.8261 2.60871ZM4.13043 3.26086C4.13043 2.90125 4.42301 2.60867 4.78262 2.60867H6.08696C6.44711 2.60867 6.73915 2.31668 6.73915 1.95649C6.73915 1.59688 7.03172 1.3043 7.39133 1.3043C7.75094 1.3043 8.04352 1.59688 8.04352 1.95649C8.04352 2.31664 8.33552 2.60867 8.69571 2.60867H10C10.3596 2.60867 10.6522 2.90125 10.6522 3.26086V3.91305H4.13043V3.26086ZM13.4783 18.0435C13.4783 18.4031 13.1857 18.6957 12.8261 18.6957H1.95653C1.59692 18.6957 1.30434 18.4031 1.30434 18.0435V4.56524C1.30434 4.20563 1.59692 3.91305 1.95653 3.91305H2.8261V4.56524C2.8261 4.9254 3.11809 5.21743 3.47828 5.21743H11.3044C11.6645 5.21743 11.9566 4.92543 11.9566 4.56524V3.91305H12.8261C13.1858 3.91305 13.4783 4.20563 13.4783 4.56524V18.0435H13.4783Z" fill="#B0AED7"/>
<path d="M7.63517 7.58161C7.38053 7.32696 6.96756 7.32696 6.71287 7.58161L4.56529 9.72919L3.72209 8.88599C3.46744 8.63134 3.05447 8.63134 2.79978 8.88599C2.54509 9.14064 2.54509 9.55361 2.79978 9.80829L4.10416 11.1126C4.35884 11.3673 4.77177 11.3673 5.02646 11.1126L7.63517 8.50392C7.88986 8.24927 7.88986 7.8363 7.63517 7.58161Z" fill="#B0AED7"/>
<path d="M7.63501 12.8004C7.38037 12.5457 6.9674 12.5457 6.71271 12.8004L4.56517 14.9479L3.72196 14.1047C3.46732 13.8501 3.05435 13.8501 2.79966 14.1047C2.54497 14.3594 2.54497 14.7724 2.79966 15.027L4.10403 16.3314C4.35872 16.5861 4.77165 16.5861 5.02634 16.3314L7.63505 13.7227C7.8897 13.468 7.8897 13.055 7.63501 12.8004Z" fill="#B0AED7"/>
<path d="M11.5217 7.39062H9.78256C9.4224 7.39062 9.13037 7.68262 9.13037 8.04281C9.13037 8.40297 9.42236 8.695 9.78256 8.695H11.5217C11.8819 8.695 12.1739 8.40301 12.1739 8.04281C12.1739 7.68266 11.8819 7.39062 11.5217 7.39062Z" fill="#B0AED7"/>
<path d="M11.5218 10H8.47836C8.1182 10 7.82617 10.292 7.82617 10.6522C7.82617 11.0123 8.11816 11.3044 8.47836 11.3044H11.5218C11.882 11.3044 12.174 11.0124 12.174 10.6522C12.174 10.292 11.882 10 11.5218 10Z" fill="#B0AED7"/>
<path d="M11.5217 12.6094H9.78256C9.4224 12.6094 9.13037 12.9014 9.13037 13.2616C9.13037 13.6218 9.42236 13.9138 9.78256 13.9138H11.5217C11.8819 13.9138 12.1739 13.6218 12.1739 13.2616C12.1739 12.9014 11.8819 12.6094 11.5217 12.6094Z" fill="#B0AED7"/>
<path d="M11.5217 15.2227H8.47824C8.11808 15.2227 7.82605 15.5146 7.82605 15.8748C7.82605 16.235 8.11804 16.527 8.47824 16.527H11.5217C11.8819 16.527 12.1739 16.235 12.1739 15.8748C12.1739 15.5146 11.8819 15.2227 11.5217 15.2227Z" fill="#B0AED7"/>
</svg>
