<svg width="22" height="18" viewBox="0 0 22 18" fill="none" xmlns="http://www.w3.org/2000/svg">
<path d="M9.87575 3.31641C9.45026 3.31641 9.10986 3.6568 9.10986 4.0823V8.99677C9.10986 9.27334 9.25879 9.54991 9.51408 9.67756L12.0671 11.0179C12.1734 11.0817 12.3011 11.103 12.4287 11.103C12.7053 11.103 12.9606 10.954 13.1095 10.6987C13.301 10.3158 13.1733 9.86903 12.7904 9.65628L10.6416 8.52872V4.0823C10.6416 3.6568 10.28 3.31641 9.87575 3.31641Z" fill="#7A5DF8"/>
<path d="M20.8535 7.95676C20.5556 7.65891 20.0663 7.65891 19.7684 7.95676L18.8536 8.89285C18.7898 3.97838 14.7902 0 9.87569 0C4.91867 0 0.876465 4.0422 0.876465 8.99922C0.876465 13.9562 4.91867 17.9984 9.87569 17.9984C10.3012 17.9984 10.6416 17.658 10.6416 17.2326C10.6416 16.8071 10.3012 16.4667 9.87569 16.4667C5.76966 16.4667 2.42952 13.1265 2.42952 9.0205C2.42952 4.91447 5.76966 1.57433 9.87569 1.57433C13.9392 1.57433 17.258 4.85064 17.3218 8.89285L16.407 7.97803C16.1092 7.68019 15.6199 7.68019 15.322 7.97803C15.0242 8.27588 15.0242 8.7652 15.322 9.06305L17.5559 11.2969C17.7048 11.4458 17.8963 11.5309 18.109 11.5309C18.3218 11.5309 18.492 11.4458 18.6622 11.2969L20.896 9.06305C21.1726 8.74392 21.1726 8.2546 20.8535 7.95676Z" fill="#7A5DF8"/>
<path d="M12.2797 16.0003C11.8542 16.1492 11.6202 16.6173 11.7691 17.0428C11.9181 17.4683 12.3861 17.7023 12.8116 17.5534C13.2371 17.4044 13.4711 16.9364 13.3222 16.5109C13.1733 16.0641 12.7052 15.8514 12.2797 16.0003Z" fill="#7A5DF8"/>
<path d="M14.5136 14.7423C14.1519 15.0401 14.1094 15.5507 14.3859 15.9124C14.6838 16.2741 15.1944 16.3166 15.5561 16.04C15.9177 15.7422 15.9603 15.2316 15.6837 14.8699C15.4071 14.5082 14.8753 14.4657 14.5136 14.7423Z" fill="#7A5DF8"/>
<path d="M17.3432 12.5315C16.9602 12.2975 16.4496 12.4251 16.2156 12.8081C15.9816 13.191 16.1092 13.7016 16.4922 13.9357C16.8751 14.1697 17.3857 14.042 17.6197 13.6591C17.8538 13.2761 17.7261 12.7655 17.3432 12.5315Z" fill="#7A5DF8"/>
</svg>
