<svg width="70" height="70" viewBox="0 0 70 70" fill="none" xmlns="http://www.w3.org/2000/svg">
<path d="M63.1641 6.01562H56.6471V4.10156C56.6471 1.83996 54.8071 0 52.5455 0C50.2839 0 48.444 1.83996 48.444 4.10156V6.01562H25.4752V4.10156C25.4752 1.83996 23.6353 0 21.3737 0C19.112 0 17.2721 1.83996 17.2721 4.10156V6.06621C17.1559 6.03408 17.0341 6.01562 16.9076 6.01562H11.4602C7.69084 6.01562 4.62424 9.08223 4.62424 12.8516V36.1393C4.62424 36.8944 5.23646 37.5065 5.99143 37.5065C6.74639 37.5065 7.35861 36.8944 7.35861 36.1393V20.0977H56.6471C57.4021 20.0977 58.0143 19.4856 58.0143 18.7305C58.0143 17.9754 57.4021 17.3633 56.6471 17.3633H7.35861V12.8516C7.35861 10.59 9.19857 8.75 11.4602 8.75H16.9076C17.0341 8.75 17.1559 8.73141 17.2721 8.69941V10.459C17.2721 12.7206 19.112 14.5605 21.3737 14.5605C23.6353 14.5605 25.4752 12.7206 25.4752 10.459V8.75H48.444V10.459C48.444 12.7206 50.2839 14.5605 52.5455 14.5605C54.8071 14.5605 56.6471 12.7206 56.6471 10.459V8.75H63.1641C65.4257 8.75 67.2656 10.59 67.2656 12.8516V64.8039C67.2656 66.1612 66.1613 67.2656 64.8039 67.2656C63.4464 67.2656 62.3421 66.1612 62.3421 64.8039V61.2671C62.3421 60.512 61.7299 59.8999 60.9749 59.8999H45.0717C44.3167 59.8999 43.7045 60.512 43.7045 61.2671C43.7045 62.0222 44.3167 62.6343 45.0717 62.6343H59.6077V64.8039C59.6077 65.694 59.833 66.5324 60.2291 67.2656H5.19531C3.83838 67.2656 2.73438 66.1616 2.73438 64.8047V62.6343H33.3354C34.0904 62.6343 34.7026 62.0222 34.7026 61.2671C34.7026 60.512 34.0904 59.8999 33.3354 59.8999H19.6751C22.0641 57.8424 23.5811 54.7991 23.5811 51.4062C23.5811 45.2245 18.5519 40.1953 12.3702 40.1953C6.18844 40.1953 1.15924 45.2245 1.15924 51.4062C1.15924 54.7991 2.67627 57.8424 5.06529 59.8999H1.36719C0.612227 59.8999 0 60.512 0 61.2671V64.8047C0 67.6694 2.33064 70 5.19531 70H64.8039C67.6689 70 70 67.6691 70 64.8039V12.8516C70 9.08223 66.9334 6.01562 63.1641 6.01562ZM22.7408 10.459C22.7408 11.2129 22.1275 11.8262 21.3737 11.8262C20.6198 11.8262 20.0065 11.2129 20.0065 10.459V4.10156C20.0065 3.3477 20.6198 2.73438 21.3737 2.73438C22.1275 2.73438 22.7408 3.3477 22.7408 4.10156V10.459ZM53.9127 10.459C53.9127 11.2129 53.2994 11.8262 52.5455 11.8262C51.7917 11.8262 51.1783 11.2129 51.1783 10.459V4.10156C51.1783 3.3477 51.7917 2.73438 52.5455 2.73438C53.2994 2.73438 53.9127 3.3477 53.9127 4.10156V10.459ZM3.89361 51.4062C3.89361 46.7322 7.69617 42.9297 12.3702 42.9297C17.0442 42.9297 20.8467 46.7322 20.8467 51.4062C20.8467 56.0803 17.0442 59.8828 12.3702 59.8828C7.69617 59.8828 3.89361 56.0803 3.89361 51.4062Z" fill="#7A5DF8"/>
<path d="M64.0266 17.7639C63.7725 17.5096 63.4198 17.3633 63.0602 17.3633C62.7005 17.3633 62.3479 17.5096 62.0936 17.7639C61.8393 18.0182 61.693 18.3709 61.693 18.7305C61.693 19.09 61.8391 19.4428 62.0936 19.6971C62.348 19.9514 62.7005 20.0977 63.0602 20.0977C63.4198 20.0977 63.7725 19.9514 64.0266 19.6971C64.2809 19.4428 64.4274 19.09 64.4274 18.7305C64.4274 18.3709 64.2811 18.0182 64.0266 17.7639Z" fill="#7A5DF8"/>
<path d="M40.831 60.3016C40.5768 60.0473 40.2241 59.9023 39.8645 59.9023C39.5049 59.9023 39.1522 60.0473 38.8979 60.3016C38.6436 60.5572 38.4973 60.9086 38.4973 61.2682C38.4973 61.6291 38.6435 61.9805 38.8979 62.2361C39.1522 62.4904 39.5049 62.6354 39.8645 62.6354C40.2241 62.6354 40.5768 62.4904 40.831 62.2361C41.0853 61.9805 41.2317 61.6277 41.2317 61.2682C41.2317 60.9086 41.0854 60.5572 40.831 60.3016Z" fill="#7A5DF8"/>
<path d="M30.9319 41.5625C28.0672 41.5625 25.7366 43.8931 25.7366 46.7578C25.7366 49.6225 28.0672 51.9531 30.9319 51.9531C33.7966 51.9531 36.1272 49.6225 36.1272 46.7578C36.1272 43.8931 33.7966 41.5625 30.9319 41.5625ZM30.9319 49.2188C29.575 49.2188 28.4709 48.1147 28.4709 46.7578C28.4709 45.4009 29.575 44.2969 30.9319 44.2969C32.2888 44.2969 33.3928 45.4009 33.3928 46.7578C33.3928 48.1147 32.2888 49.2188 30.9319 49.2188Z" fill="#7A5DF8"/>
<path d="M43.6924 41.5625C40.8277 41.5625 38.4971 43.8931 38.4971 46.7578C38.4971 49.6225 40.8277 51.9531 43.6924 51.9531C46.5571 51.9531 48.8877 49.6225 48.8877 46.7578C48.8877 43.8931 46.5571 41.5625 43.6924 41.5625ZM43.6924 49.2188C42.3354 49.2188 41.2314 48.1147 41.2314 46.7578C41.2314 45.4009 42.3354 44.2969 43.6924 44.2969C45.0493 44.2969 46.1533 45.4009 46.1533 46.7578C46.1533 48.1147 45.0493 49.2188 43.6924 49.2188Z" fill="#7A5DF8"/>
<path d="M56.4528 41.5625C53.5881 41.5625 51.2574 43.8931 51.2574 46.7578C51.2574 49.6225 53.5881 51.9531 56.4528 51.9531C59.3174 51.9531 61.6481 49.6225 61.6481 46.7578C61.6481 43.8931 59.3174 41.5625 56.4528 41.5625ZM56.4528 49.2188C55.0958 49.2188 53.9918 48.1147 53.9918 46.7578C53.9918 45.4009 55.0958 44.2969 56.4528 44.2969C57.8097 44.2969 58.9137 45.4009 58.9137 46.7578C58.9137 48.1147 57.8097 49.2188 56.4528 49.2188Z" fill="#7A5DF8"/>
<path d="M18.1715 27.3438C15.3068 27.3438 12.9762 29.6744 12.9762 32.5391C12.9762 35.4037 15.3068 37.7344 18.1715 37.7344C21.0362 37.7344 23.3668 35.4037 23.3668 32.5391C23.3668 29.6744 21.0362 27.3438 18.1715 27.3438ZM18.1715 35C16.8146 35 15.7106 33.896 15.7106 32.5391C15.7106 31.1821 16.8146 30.0781 18.1715 30.0781C19.5284 30.0781 20.6324 31.1821 20.6324 32.5391C20.6324 33.896 19.5284 35 18.1715 35Z" fill="#7A5DF8"/>
<path d="M43.6924 27.3438C40.8277 27.3438 38.4971 29.6744 38.4971 32.5391C38.4971 35.4037 40.8277 37.7344 43.6924 37.7344C46.5571 37.7344 48.8877 35.4037 48.8877 32.5391C48.8877 29.6744 46.5571 27.3438 43.6924 27.3438ZM43.6924 35C42.3354 35 41.2314 33.896 41.2314 32.5391C41.2314 31.1821 42.3354 30.0781 43.6924 30.0781C45.0493 30.0781 46.1533 31.1821 46.1533 32.5391C46.1533 33.896 45.0493 35 43.6924 35Z" fill="#7A5DF8"/>
<path d="M56.4528 27.3438C53.5881 27.3438 51.2574 29.6744 51.2574 32.5391C51.2574 35.4037 53.5881 37.7344 56.4528 37.7344C59.3174 37.7344 61.6481 35.4037 61.6481 32.5391C61.6481 29.6744 59.3174 27.3438 56.4528 27.3438ZM56.4528 35C55.0958 35 53.9918 33.896 53.9918 32.5391C53.9918 31.1821 55.0958 30.0781 56.4528 30.0781C57.8097 30.0781 58.9137 31.1821 58.9137 32.5391C58.9137 33.896 57.8097 35 56.4528 35Z" fill="#7A5DF8"/>
<path d="M30.9319 27.3438C28.0672 27.3438 25.7366 29.6744 25.7366 32.5391C25.7366 35.4037 28.0672 37.7344 30.9319 37.7344C33.7966 37.7344 36.1272 35.4037 36.1272 32.5391C36.1272 29.6744 33.7966 27.3438 30.9319 27.3438ZM30.9319 35C29.575 35 28.4709 33.896 28.4709 32.5391C28.4709 31.1821 29.575 30.0781 30.9319 30.0781C32.2888 30.0781 33.3928 31.1821 33.3928 32.5391C33.3928 33.896 32.2888 35 30.9319 35Z" fill="#7A5DF8"/>
<circle cx="13" cy="51" r="10" fill="#7A5DF8"/>
<path d="M17.2407 48.0762C16.7067 47.5423 15.8413 47.5423 15.3071 48.0762L10.8547 52.5287L9.33317 51.0072C8.79915 50.4733 7.93372 50.4733 7.39956 51.0072C6.86567 51.5411 6.86567 52.4068 7.39956 52.9408L9.88798 55.4289C10.1445 55.6853 10.4921 55.8294 10.8547 55.8294C11.2173 55.8294 11.565 55.6853 11.8215 55.4289L17.2407 50.0097C17.7746 49.4758 17.7746 48.6101 17.2407 48.0762Z" fill="white"/>
</svg>
