<svg width="26" height="26" viewBox="0 0 26 26" fill="none" xmlns="http://www.w3.org/2000/svg">
<path d="M21.3636 22.8874C19.109 24.7917 16.1841 26.0003 13.0001 26.0003C8.26223 26.0003 4.10324 23.3901 1.84863 19.5816L2.69271 15.6907L6.43413 14.9961C7.30248 17.7991 9.92271 19.8558 13.0001 19.8558C14.493 19.8558 15.8793 19.3835 17.0219 18.5457L20.6172 19.0941L21.3636 22.8874Z" fill="#59C36A"/>
<path d="M21.3636 22.8886L20.6171 19.0953L17.0218 18.5469C15.8793 19.3848 14.4929 19.857 13 19.857V26.0015C16.184 26.0015 19.1089 24.7929 21.3636 22.8886Z" fill="#00A66C"/>
<path d="M6.14446 12.9913C6.14446 13.6921 6.2511 14.3624 6.43391 14.987L1.84842 19.5725C0.705851 17.653 0 15.3983 0 12.9913C0 10.5843 0.705851 8.32967 1.84842 6.41016L5.52864 7.04354L6.43391 10.9956C6.2511 11.6202 6.14446 12.2905 6.14446 12.9913Z" fill="#FFDA2D"/>
<path d="M25.9998 13C25.9998 16.9608 24.1667 20.5104 21.3636 22.887L17.0218 18.5452C17.9054 17.9053 18.6519 17.0522 19.1394 16.0468H13C12.5734 16.0468 12.2383 15.7116 12.2383 15.2851V10.7148C12.2383 10.2882 12.5734 9.95312 13 9.95312H25.0248C25.3905 9.95312 25.7104 10.2121 25.7713 10.5777C25.9237 11.3699 25.9998 12.1925 25.9998 13Z" fill="#4086F4"/>
<path d="M19.1394 16.0468C18.6519 17.0522 17.9054 17.9053 17.0219 18.5452L21.3636 22.887C24.1667 20.5104 25.9998 16.9609 25.9998 13C25.9998 12.1925 25.9237 11.3699 25.7713 10.5777C25.7104 10.2121 25.3904 9.95312 25.0248 9.95312H13V16.0468H19.1394Z" fill="#4175DF"/>
<path d="M21.5769 3.63077C21.5922 3.84404 21.5007 4.04214 21.3636 4.19443L18.1035 7.43932C17.8446 7.71353 17.418 7.744 17.1133 7.51549C15.9097 6.61672 14.493 6.14446 13.0001 6.14446C9.92271 6.14446 7.30248 8.20103 6.43413 11.0042L1.84863 6.41868C4.10324 2.61013 8.26223 0 13.0001 0C16.0317 0 18.9871 1.11717 21.3027 3.0671C21.4703 3.20426 21.5617 3.41749 21.5769 3.63077Z" fill="#FF641A"/>
<path d="M17.1132 7.51549C17.4179 7.74405 17.8444 7.71353 18.1034 7.43932L21.3635 4.19443C21.5007 4.04214 21.5921 3.8441 21.5768 3.63077C21.5615 3.41744 21.4702 3.20426 21.3026 3.0671C18.987 1.11717 16.0316 0 13 0V6.14446C14.4929 6.14446 15.9097 6.61672 17.1132 7.51549Z" fill="#F03800"/>
</svg>
