<svg width="22" height="22" viewBox="0 0 22 22" fill="none" xmlns="http://www.w3.org/2000/svg">
<path d="M4.85474 17.3162C4.85474 17.7908 4.46995 18.1756 3.99526 18.1756C3.52057 18.1756 3.13578 17.7908 3.13578 17.3162C3.13578 16.8415 3.52057 16.4568 3.99526 16.4568C4.46995 16.4568 4.85474 16.8416 4.85474 17.3162ZM21.4134 9.30017L12.8772 0.753685C11.8711 -0.250755 10.234 -0.250755 9.23073 0.750849L0.588806 9.29807C0.0132988 9.87263 -0.157737 10.7292 0.15305 11.4803C0.464224 12.2324 1.19164 12.7184 2.00621 12.7184H3.13578V14.3083C3.13578 14.7829 3.52057 15.1677 3.99526 15.1677C4.46995 15.1677 4.85474 14.7829 4.85474 14.3083V11.859C4.85474 11.3843 4.46995 10.9995 3.99526 10.9995H2.00621C1.8393 10.9995 1.7687 10.8891 1.74145 10.8232C1.70841 10.7435 1.69238 10.6252 1.80046 10.5173L10.4424 1.97006C10.7789 1.63424 11.3262 1.63416 11.6619 1.96916L20.197 10.5147C20.3077 10.6256 20.2915 10.7438 20.2585 10.8234C20.2312 10.8891 20.1606 10.9995 19.9939 10.9995H18.1767C17.702 10.9995 17.3172 11.3843 17.3172 11.8589V14.3082C17.3172 14.7829 17.702 15.1677 18.1767 15.1677C18.6514 15.1677 19.0362 14.7829 19.0362 14.3082V12.7183H19.9939C20.8077 12.7183 21.5349 12.2329 21.8464 11.4818C22.1575 10.7315 21.9875 9.87517 21.4134 9.30017ZM16.8937 19.8943C17.0015 20.4139 16.8709 20.9483 16.5354 21.3606C16.2047 21.767 15.7167 22 15.1966 22H6.80348C6.28044 22 5.79097 21.7672 5.46067 21.3613C5.12831 20.9529 4.99918 20.4224 5.1064 19.9057C5.38409 18.5683 6.11946 17.3513 7.17714 16.4789C7.57735 16.1488 8.01711 15.874 8.48342 15.6592C7.96408 15.0687 7.64809 14.2951 7.64809 13.4488C7.64809 11.6007 9.15175 10.0971 11.0001 10.0971C12.8484 10.0971 14.352 11.6007 14.352 13.4488C14.352 14.2951 14.036 15.0687 13.5167 15.6592C13.983 15.874 14.4228 16.1487 14.823 16.4789C15.8594 17.3338 16.5864 18.5197 16.8764 19.8255C16.8831 19.8481 16.8888 19.871 16.8937 19.8943ZM9.367 13.4488C9.367 14.3492 10.0996 15.0817 11 15.0817C11.9004 15.0817 12.633 14.3492 12.633 13.4488C12.633 12.5485 11.9004 11.8159 11 11.8159C10.0996 11.8159 9.367 12.5485 9.367 13.4488ZM15.2109 20.2568C15.2108 20.2562 15.2107 20.2557 15.2106 20.2551C14.7979 18.2675 13.0271 16.8249 11.0001 16.8249C8.97302 16.8249 7.20215 18.2675 6.78951 20.2551C6.78552 20.2744 6.7988 20.2807 6.79892 20.2808C6.79922 20.2809 6.80073 20.2812 6.80352 20.2812H15.1966C15.1971 20.2807 15.2086 20.272 15.2109 20.2568ZM18.1767 16.4568C17.702 16.4568 17.3172 16.8415 17.3172 17.3162C17.3172 17.7908 17.702 18.1756 18.1767 18.1756C18.6513 18.1756 19.0361 17.7908 19.0361 17.3162C19.0361 16.8416 18.6513 16.4568 18.1767 16.4568Z" fill="#9494AE"/>
</svg>
