<svg width="17" height="17" viewBox="0 0 17 17" fill="none" xmlns="http://www.w3.org/2000/svg">
<path d="M17.0008 12.7179C16.9389 12.4269 16.8945 12.1322 16.8109 11.8482C16.6331 11.2456 16.3055 10.6979 15.8586 10.2564C14.6171 9.00917 13.3864 7.75282 12.1229 6.52973C10.6831 5.13577 8.20136 5.06509 6.65943 6.59125C6.21443 7.03152 6.18119 7.70251 6.58506 8.16398C6.97023 8.60383 7.66536 8.65787 8.14443 8.2729C8.39124 8.07501 8.62974 7.87587 8.9476 7.79439C9.55547 7.63807 10.1027 7.74575 10.5651 8.17229C10.9391 8.51694 11.291 8.88528 11.6513 9.24489C12.501 10.093 13.3527 10.9386 14.1974 11.7913C15.0156 12.6169 14.849 13.9373 13.8626 14.5014C13.2048 14.8756 12.3668 14.7592 11.8021 14.2013C11.1335 13.5398 10.4663 12.8776 9.80768 12.2057C9.63691 12.0311 9.47944 11.9846 9.24925 12.0769C8.69414 12.2993 8.11078 12.3866 7.5137 12.3862C7.37493 12.3862 7.2644 12.4298 7.2054 12.5641C7.1464 12.6984 7.20083 12.8136 7.29723 12.9071C8.32019 13.9256 9.33318 14.9529 10.3719 15.9586C10.9769 16.5452 11.7236 16.8632 12.5604 16.968C12.6025 16.9761 12.6442 16.9868 12.685 17H13.3822C13.435 16.9884 13.4878 16.9734 13.5414 16.9651C15.1136 16.7115 16.1964 15.8455 16.7603 14.3555C16.8812 14.0354 16.9215 13.6849 16.9992 13.3482L17.0008 12.7179Z" fill="white"/>
<path d="M7.5937 11.5352C8.64575 11.5256 9.57979 11.1452 10.3564 10.3902C10.5677 10.1898 10.6922 9.91464 10.7034 9.62354C10.7146 9.33244 10.6115 9.04851 10.4162 8.83247C10.0289 8.39885 9.33797 8.34481 8.86929 8.72146C8.61999 8.92268 8.3765 9.12597 8.05241 9.20871C7.47071 9.35754 6.94884 9.25028 6.48265 8.87238C6.44814 8.84463 6.41513 8.81507 6.38376 8.78383C5.17507 7.5757 3.9618 6.37256 2.76101 5.15654C2.48249 4.87458 2.31165 4.50379 2.27824 4.10876C2.24484 3.71374 2.35098 3.3195 2.57819 2.99472C3.19147 2.12168 4.41969 2.02273 5.19584 2.79018C5.86064 3.44704 6.52544 4.10556 7.17363 4.77739C7.36309 4.9732 7.53677 5.0181 7.78857 4.915C8.31667 4.69965 8.87469 4.62399 9.44268 4.619C9.59433 4.619 9.73353 4.60029 9.80125 4.44023C9.86898 4.28017 9.77882 4.16709 9.67286 4.06191C8.64159 3.03629 7.63691 1.98324 6.57198 0.992959C5.68032 0.16149 4.57758 -0.13867 3.37595 0.060051C1.82821 0.315728 0.754139 1.20291 0.238918 2.68292C-0.253866 4.09974 0.0253504 5.41139 0.986819 6.56048C1.29471 6.92799 1.65162 7.25351 1.99358 7.59399C2.94923 8.55226 3.90073 9.51884 4.873 10.4626C5.61633 11.1805 6.5296 11.5185 7.5937 11.5352Z" fill="white"/>
</svg>
