<svg width="18" height="18" viewBox="0 0 18 18" fill="none" xmlns="http://www.w3.org/2000/svg">
<path d="M12.6 18H10.2C10.0409 18 9.88826 17.9368 9.77574 17.8243C9.66321 17.7117 9.6 17.5591 9.6 17.4V12C9.6 11.8409 9.66321 11.6883 9.77574 11.5757C9.88826 11.4632 10.0409 11.4 10.2 11.4H12.6V6.6C12.6 6.44087 12.6632 6.28826 12.7757 6.17574C12.8883 6.06321 13.0409 6 13.2 6H17.4C17.5591 6 17.7117 6.06321 17.8243 6.17574C17.9368 6.28826 18 6.44087 18 6.6V14.4C18 14.5591 17.9368 14.7117 17.8243 14.8243C17.7117 14.9368 17.5591 15 17.4 15H13.2V17.4C13.2 17.5591 13.1368 17.7117 13.0243 17.8243C12.9117 17.9368 12.7591 18 12.6 18ZM10.8 16.8H12V14.4C12 14.2409 12.0632 14.0883 12.1757 13.9757C12.2883 13.8632 12.4409 13.8 12.6 13.8H16.8V7.2H13.8V12C13.8 12.1591 13.7368 12.3117 13.6243 12.4243C13.5117 12.5368 13.3591 12.6 13.2 12.6H10.8V16.8ZM7.8 18H5.4C5.24087 18 5.08826 17.9368 4.97574 17.8243C4.86321 17.7117 4.8 17.5591 4.8 17.4V15H0.600001C0.440871 15 0.288259 14.9368 0.175737 14.8243C0.0632153 14.7117 1.24093e-06 14.5591 1.24093e-06 14.4V6.6C1.24093e-06 6.44087 0.0632153 6.28826 0.175737 6.17574C0.288259 6.06321 0.440871 6 0.600001 6H4.8C4.95913 6 5.11174 6.06321 5.22426 6.17574C5.33679 6.28826 5.4 6.44087 5.4 6.6V11.4H7.8C7.95913 11.4 8.11174 11.4632 8.22426 11.5757C8.33679 11.6883 8.4 11.8409 8.4 12V17.4C8.4 17.5591 8.33679 17.7117 8.22426 17.8243C8.11174 17.9368 7.95913 18 7.8 18ZM6 16.8H7.2V12.6H4.8C4.64087 12.6 4.48826 12.5368 4.37574 12.4243C4.26322 12.3117 4.2 12.1591 4.2 12V7.2H1.2V13.8H5.4C5.55913 13.8 5.71174 13.8632 5.82426 13.9757C5.93679 14.0883 6 14.2409 6 14.4V16.8ZM10.8 10.2H7.2C7.04087 10.2 6.88826 10.1368 6.77574 10.0243C6.66322 9.91174 6.6 9.75913 6.6 9.6C6.6 9.44087 6.66322 9.28826 6.77574 9.17574C6.88826 9.06321 7.04087 9 7.2 9H10.8C10.9591 9 11.1117 9.06321 11.2243 9.17574C11.3368 9.28826 11.4 9.44087 11.4 9.6C11.4 9.75913 11.3368 9.91174 11.2243 10.0243C11.1117 10.1368 10.9591 10.2 10.8 10.2ZM9.9 7.8H8.1C7.63368 7.79989 7.18066 7.64458 6.81237 7.35854C6.44408 7.07251 6.18147 6.67203 6.06595 6.22025C5.95042 5.76847 5.98855 5.29108 6.17434 4.86337C6.36012 4.43565 6.68297 4.08194 7.092 3.858C6.77242 3.43917 6.59953 2.92683 6.6 2.4C6.6 1.76348 6.85286 1.15303 7.30294 0.702945C7.75303 0.252858 8.36348 1.24093e-06 9 1.24093e-06C9.63652 1.24093e-06 10.247 0.252858 10.6971 0.702945C11.1471 1.15303 11.4 1.76348 11.4 2.4C11.4005 2.92683 11.2276 3.43917 10.908 3.858C11.317 4.08194 11.6399 4.43565 11.8257 4.86337C12.0114 5.29108 12.0496 5.76847 11.9341 6.22025C11.8185 6.67203 11.5559 7.07251 11.1876 7.35854C10.8193 7.64458 10.3663 7.79989 9.9 7.8ZM8.1 4.8C7.86131 4.8 7.63239 4.89482 7.4636 5.0636C7.29482 5.23239 7.2 5.46131 7.2 5.7C7.2 5.9387 7.29482 6.16761 7.4636 6.3364C7.63239 6.50518 7.86131 6.6 8.1 6.6H9.9C10.1387 6.6 10.3676 6.50518 10.5364 6.3364C10.7052 6.16761 10.8 5.9387 10.8 5.7C10.8 5.46131 10.7052 5.23239 10.5364 5.0636C10.3676 4.89482 10.1387 4.8 9.9 4.8H8.1ZM9 1.2C8.76266 1.2 8.53066 1.27038 8.33332 1.40224C8.13598 1.5341 7.98217 1.72151 7.89135 1.94078C7.80052 2.16005 7.77676 2.40133 7.82306 2.63411C7.86936 2.86689 7.98365 3.08071 8.15147 3.24853C8.3193 3.41635 8.53312 3.53064 8.76589 3.57694C8.99867 3.62325 9.23995 3.59948 9.45922 3.50866C9.67849 3.41783 9.86591 3.26402 9.99776 3.06669C10.1296 2.86935 10.2 2.63734 10.2 2.4C10.2 2.08174 10.0736 1.77652 9.84853 1.55147C9.62348 1.32643 9.31826 1.2 9 1.2ZM15.3 5.4C14.766 5.4 14.244 5.24165 13.8 4.94497C13.3559 4.64829 13.0099 4.22661 12.8055 3.73325C12.6012 3.23989 12.5477 2.69701 12.6519 2.17326C12.7561 1.64951 13.0132 1.16841 13.3908 0.790813C13.7684 0.413211 14.2495 0.156061 14.7733 0.051881C15.297 -0.0522991 15.8399 0.00116985 16.3332 0.205526C16.8266 0.409883 17.2483 0.755949 17.545 1.19996C17.8416 1.64397 18 2.16599 18 2.7C17.9984 3.4156 17.7134 4.10143 17.2074 4.60744C16.7014 5.11344 16.0156 5.39842 15.3 5.4ZM15.3 1.2C15.0033 1.2 14.7133 1.28797 14.4666 1.4528C14.22 1.61762 14.0277 1.85189 13.9142 2.12598C13.8006 2.40007 13.7709 2.70166 13.8288 2.99264C13.8867 3.28361 14.0296 3.55088 14.2393 3.76066C14.4491 3.97044 14.7164 4.1133 15.0074 4.17118C15.2983 4.22906 15.5999 4.19935 15.874 4.08582C16.1481 3.97229 16.3824 3.78003 16.5472 3.53336C16.712 3.28668 16.8 2.99667 16.8 2.7C16.8 2.30218 16.642 1.92065 16.3607 1.63934C16.0794 1.35804 15.6978 1.2 15.3 1.2ZM2.7 5.4C2.16599 5.4 1.64397 5.24165 1.19996 4.94497C0.755949 4.64829 0.409883 4.22661 0.205526 3.73325C0.00116985 3.23989 -0.0522991 2.69701 0.051881 2.17326C0.156061 1.64951 0.413211 1.16841 0.790813 0.790813C1.16841 0.413211 1.64951 0.156061 2.17326 0.051881C2.69701 -0.0522991 3.23989 0.00116985 3.73325 0.205526C4.22661 0.409883 4.64829 0.755949 4.94497 1.19996C5.24165 1.64397 5.4 2.16599 5.4 2.7C5.39842 3.4156 5.11344 4.10143 4.60744 4.60744C4.10143 5.11344 3.4156 5.39842 2.7 5.4ZM2.7 1.2C2.40333 1.2 2.11332 1.28797 1.86665 1.4528C1.61997 1.61762 1.42771 1.85189 1.31418 2.12598C1.20065 2.40007 1.17095 2.70166 1.22882 2.99264C1.2867 3.28361 1.42956 3.55088 1.63934 3.76066C1.84912 3.97044 2.11639 4.1133 2.40737 4.17118C2.69834 4.22906 2.99994 4.19935 3.27403 4.08582C3.54812 3.97229 3.78238 3.78003 3.94721 3.53336C4.11203 3.28668 4.2 2.99667 4.2 2.7C4.2 2.30218 4.04197 1.92065 3.76066 1.63934C3.47936 1.35804 3.09783 1.2 2.7 1.2Z" fill="#B0AED7"/>
</svg>
