<svg width="22" height="22" viewBox="0 0 22 22" fill="none" xmlns="http://www.w3.org/2000/svg">
<path d="M20.7109 11.7556V9.71114C20.7109 9.35518 20.4223 9.06659 20.0663 9.06659C18.7348 9.06659 17.4934 9.17896 16.3206 9.40842C15.6369 8.74819 14.8035 8.26916 13.9009 8.00735C14.8851 7.17902 15.5116 5.93879 15.5116 4.55478C15.5116 2.04325 13.4877 0 10.9999 0C8.51218 0 6.48823 2.04325 6.48823 4.55478C6.48823 5.93879 7.11479 7.17902 8.09899 8.00731C7.19643 8.26916 6.36297 8.74819 5.6793 9.40837C4.50647 9.17896 3.2651 9.06655 1.93359 9.06655C1.57764 9.06655 1.28906 9.35513 1.28906 9.71109V11.7556C0.53887 12.0217 0 12.7381 0 13.5784V14.8674C0 15.7077 0.53887 16.4242 1.28906 16.6902V18.7347C1.28906 19.0907 1.57764 19.3793 1.93359 19.3793C5.30358 19.3793 8.07089 20.1778 10.6425 21.8922C10.858 22.0358 11.1418 22.0361 11.3575 21.8922C13.9291 20.1778 16.6964 19.3793 20.0664 19.3793C20.4224 19.3793 20.7109 19.0907 20.7109 18.7347V16.6902C21.4611 16.4242 22 15.7077 22 14.8674V13.5784C21.9999 12.7381 21.461 12.0217 20.7109 11.7556ZM7.77729 4.55478C7.77729 2.75405 9.22297 1.28909 10.9999 1.28909C12.7769 1.28909 14.2226 2.75405 14.2226 4.55478C14.2226 6.33179 12.7769 7.7775 10.9999 7.7775C9.22297 7.7775 7.77729 6.33179 7.77729 4.55478ZM1.93355 15.512C1.57815 15.512 1.28902 15.2229 1.28902 14.8675V13.5784C1.28902 13.223 1.57815 12.9339 1.93355 12.9339C2.28894 12.9339 2.57808 13.223 2.57808 13.5784V14.8675C2.57808 15.2229 2.28894 15.512 1.93355 15.512ZM10.3554 20.1994C8.01563 18.8613 5.50485 18.185 2.57808 18.0995V16.6903C3.32827 16.4242 3.86714 15.7078 3.86714 14.8675V13.5784C3.86714 12.7381 3.32827 12.0217 2.57808 11.7556V10.3648C5.60655 10.4517 8.04086 11.1649 10.3554 12.6386V20.1994ZM10.9999 11.5218C9.81031 10.7712 8.57203 10.1997 7.25015 9.79802C7.97649 9.32596 8.83152 9.06659 9.71088 9.06659H12.289C13.1683 9.06659 14.0234 9.32596 14.7497 9.79802C13.4278 10.1997 12.1895 10.7712 10.9999 11.5218ZM19.4218 18.0995C16.4951 18.185 13.9842 18.8614 11.6445 20.1995V12.6391C13.9591 11.1653 16.3932 10.4517 19.4218 10.3648V11.7556C18.6716 12.0217 18.1327 12.7381 18.1327 13.5784V14.8675C18.1327 15.7078 18.6716 16.4242 19.4218 16.6903V18.0995ZM20.7109 14.8675C20.7109 15.2229 20.4217 15.512 20.0663 15.512C19.7109 15.512 19.4218 15.2229 19.4218 14.8675V13.5784C19.4218 13.223 19.7109 12.9339 20.0663 12.9339C20.4217 12.9339 20.7109 13.223 20.7109 13.5784V14.8675Z" fill="#7A5DF8"/>
</svg>
