<svg width="18" height="18" viewBox="0 0 18 18" fill="none" xmlns="http://www.w3.org/2000/svg">
<path d="M16.8 6.17988H16.0919V1.2C16.0919 0.538476 15.5537 0 14.8919 0H5.3039C5.22583 0 5.14804 0.015894 5.07476 0.046218C5.00113 0.076686 4.93469 0.120666 4.87928 0.176184L2.0844 2.97136C2.02885 3.02677 1.98487 3.0932 1.95436 3.16685C1.92404 3.24016 1.90811 3.31798 1.90811 3.3961V6.17989H1.2C0.538182 6.17989 0 6.71836 0 7.37989V16.8C0 17.4615 0.538182 18 1.2 18H16.8C17.4618 18 18 17.4615 18 16.8V7.37988C18 6.71836 17.4618 6.17988 16.8 6.17988ZM4.7039 2.04855V2.7961H3.95644L4.7039 2.04855ZM3.10811 3.9961H5.30391C5.63526 3.9961 5.90391 3.72773 5.90391 3.3961V1.2H14.8919V6.17988H14.4059C13.744 6.17988 13.2059 6.71836 13.2059 7.37988V8.84707H4.79414V7.37988C4.79414 6.71836 4.25596 6.17988 3.59414 6.17988H3.10811V3.9961ZM16.8 16.8H1.2V7.37988H3.59414V8.84707C3.59414 9.50859 4.13232 10.0471 4.79414 10.0471H13.2059C13.8677 10.0471 14.4059 9.50859 14.4059 8.84707V7.37988L16.8 7.3793V16.8Z" fill="#B0AED7"/>
<path d="M8.99988 11.4062C7.88923 11.4062 6.98572 12.3098 6.98572 13.4207C6.98572 14.5311 7.88923 15.4346 8.99988 15.4346C10.1105 15.4346 11.014 14.5311 11.014 13.4207C11.014 12.3098 10.1105 11.4062 8.99988 11.4062ZM8.99988 14.2346C8.55105 14.2346 8.18572 13.8695 8.18572 13.4207C8.18572 12.9719 8.55105 12.6062 8.99988 12.6062C9.44871 12.6062 9.81403 12.9719 9.81403 13.4207C9.81403 13.8695 9.44871 14.2346 8.99988 14.2346Z" fill="#B0AED7"/>
<path d="M7.25613 3.60234H10.7436C11.075 3.60234 11.3436 3.33398 11.3436 3.00234C11.3436 2.67071 11.075 2.40234 10.7436 2.40234H7.25613C6.92478 2.40234 6.65613 2.67071 6.65613 3.00234C6.65613 3.33398 6.92478 3.60234 7.25613 3.60234Z" fill="#B0AED7"/>
<path d="M7.25613 5.48906H10.7436C11.075 5.48906 11.3436 5.2207 11.3436 4.88906C11.3436 4.55742 11.075 4.28906 10.7436 4.28906H7.25613C6.92478 4.28906 6.65613 4.55742 6.65613 4.88906C6.65613 5.2207 6.92478 5.48906 7.25613 5.48906Z" fill="#B0AED7"/>
<path d="M7.25613 7.37969H10.7436C11.075 7.37969 11.3436 7.11133 11.3436 6.77969C11.3436 6.44805 11.075 6.17969 10.7436 6.17969H7.25613C6.92478 6.17969 6.65613 6.44805 6.65613 6.77969C6.65613 7.11133 6.92478 7.37969 7.25613 7.37969Z" fill="#B0AED7"/>
</svg>
