<svg width="13" height="13" viewBox="0 0 13 13" fill="none" xmlns="http://www.w3.org/2000/svg">
<path d="M6.5 0C4.77609 0 3.12279 0.684819 1.90381 1.90381C0.684819 3.12279 0 4.77609 0 6.5H0C0 8.22391 0.684819 9.87721 1.90381 11.0962C3.12279 12.3152 4.77609 13 6.5 13C8.22391 13 9.87721 12.3152 11.0962 11.0962C12.3152 9.87721 13 8.22391 13 6.5C13 4.77609 12.3152 3.12279 11.0962 1.90381C9.87721 0.684819 8.22391 0 6.5 0V0ZM9.75 6.513C9.7511 6.58293 9.73808 6.65235 9.71172 6.71713C9.68536 6.78191 9.64621 6.8407 9.5966 6.89L7.4568 9.0233C7.40823 9.07195 7.35055 9.11057 7.28706 9.13693C7.22357 9.1633 7.15551 9.1769 7.08676 9.17696C7.01801 9.17702 6.94992 9.16354 6.88639 9.13728C6.82285 9.11103 6.7651 9.07252 6.71645 9.02395C6.6678 8.97538 6.62918 8.9177 6.60282 8.85421C6.57645 8.79072 6.56285 8.72266 6.56279 8.65391C6.56273 8.58516 6.57621 8.51708 6.60247 8.45354C6.62872 8.39 6.66723 8.33225 6.7158 8.2836L7.969 7.0291H3.77C3.63209 7.0291 3.49982 6.97431 3.4023 6.8768C3.30479 6.77928 3.25 6.64701 3.25 6.5091C3.25 6.37119 3.30479 6.23892 3.4023 6.1414C3.49982 6.04389 3.63209 5.9891 3.77 5.9891H7.9807L6.7158 4.7242C6.61754 4.62594 6.56233 4.49266 6.56233 4.3537C6.56233 4.28489 6.57589 4.21676 6.60222 4.15319C6.62855 4.08962 6.66714 4.03185 6.7158 3.9832C6.76445 3.93455 6.82222 3.89595 6.88579 3.86962C6.94936 3.84329 7.01749 3.82973 7.0863 3.82973C7.22526 3.82973 7.35854 3.88494 7.4568 3.9832L9.5966 6.1165C9.64542 6.16503 9.68412 6.22277 9.71045 6.28637C9.73678 6.34997 9.75023 6.41816 9.75 6.487V6.513Z" fill="white"/>
</svg>
