<svg width="20" height="12" viewBox="0 0 20 12" fill="none" xmlns="http://www.w3.org/2000/svg">
<path d="M20 1.83671V10.1626C19.9031 10.5062 19.7631 10.821 19.4818 11.0477C18.9129 11.5049 18.1803 11.4396 17.6283 10.8641C16.8482 10.0533 16.0699 9.24058 15.2935 8.42587C15.2479 8.37753 15.1972 8.33442 15.121 8.26257C15.121 8.81123 15.121 9.30764 15.121 9.8034C15.1172 11.0843 14.2458 11.998 13.0162 11.9987C9.37717 11.9987 5.73816 11.9987 2.09914 11.9987C0.885166 11.9987 0 11.0803 0 9.81515C0 7.27085 0.00104186 4.72676 0.00312559 2.18289C0.00322434 1.99268 0.0241986 1.80311 0.0656373 1.6179C0.285679 0.644024 1.09896 0 2.10039 0C5.73983 0 9.37884 0 13.0174 0C13.08 0 13.1481 0 13.2131 0C14.1151 0.0496408 14.9403 0.779229 15.0747 1.71195C15.1372 2.16525 15.1103 2.63357 15.1203 3.09536C15.1247 3.29523 15.1203 3.49575 15.1203 3.69562L15.1878 3.73939C15.2232 3.67595 15.2638 3.61585 15.3091 3.55977C16.0897 2.74026 16.8723 1.92249 17.6571 1.10647C18.2472 0.497061 19.1073 0.489223 19.6306 1.11104C19.8 1.31156 19.8787 1.59242 20 1.83671ZM5.68482 5.9791V8.13978C5.68482 8.44154 5.78796 8.68517 6.05489 8.82626C6.32181 8.96734 6.56436 8.90268 6.78565 8.72698C7.68457 8.00849 8.58411 7.29001 9.47365 6.56499C9.86185 6.2482 9.86185 5.75114 9.47365 5.43501C8.57911 4.70281 7.67394 3.98432 6.77064 3.26127C6.69076 3.19067 6.59567 3.14137 6.49355 3.11759C6.39142 3.09382 6.2853 3.09627 6.18428 3.12476C5.85797 3.2175 5.68794 3.46702 5.68419 3.87916C5.68169 4.57871 5.68482 5.2789 5.68482 5.9791Z" fill="white"/>
</svg>
