<svg width="25" height="21" viewBox="0 0 25 21" fill="none" xmlns="http://www.w3.org/2000/svg">
<path d="M24.33 10.9213C24.2839 11.3108 24.2463 11.7003 24.1904 12.0898C23.7853 14.9125 22.6097 17.3716 20.6985 19.4833C20.4778 19.7274 20.1603 19.7638 19.9156 19.5483C19.6148 19.2792 19.3298 18.9931 19.0619 18.6913C18.8639 18.4687 18.899 18.2207 19.1171 17.9396C19.4508 17.5085 19.8078 17.0924 20.1162 16.6412C21.4645 14.6794 22.115 12.4969 22.1131 10.1222C22.1238 7.99854 21.5307 5.91557 20.4031 4.11599C20.05 3.54731 19.6189 3.02537 19.2041 2.49759C18.8425 2.03732 18.8393 1.83218 19.2508 1.4206C19.441 1.22975 19.628 1.03564 19.8228 0.850626C20.1376 0.551355 20.4551 0.566935 20.7459 0.892173C22.7317 3.11041 23.91 5.69285 24.2424 8.65569C24.2703 8.90563 24.3008 9.15426 24.33 9.40355V10.9213Z" fill="#7A5DF8"/>
<path d="M11.0626 10.1878V19.2114C11.0626 19.2763 11.0626 19.3412 11.0626 19.4016C11.0711 19.6886 11.0107 19.9482 10.7173 20.0696C10.4239 20.191 10.2012 20.0488 9.99605 19.8483C9.75325 19.6107 9.50202 19.3802 9.25468 19.1465C7.70142 17.678 6.14858 16.209 4.59618 14.7392C4.5445 14.6868 4.48236 14.6458 4.41379 14.6189C4.34523 14.5921 4.27179 14.58 4.19824 14.5834C3.03491 14.5899 1.87093 14.5873 0.706955 14.5867C0.199298 14.5867 0 14.3919 0 13.8855C0 11.4078 0 8.93015 0 6.45245C0 5.94285 0.194753 5.74485 0.702411 5.74485C1.87418 5.74485 3.04594 5.74874 4.21706 5.73771C4.35362 5.73153 4.48395 5.67884 4.58644 5.5884C6.39895 3.8882 8.20237 2.17437 10.0155 0.476766C10.1457 0.354262 10.3072 0.270222 10.4823 0.233973C10.7523 0.186583 10.9744 0.371599 11.0334 0.642955C11.0553 0.759345 11.0649 0.877715 11.062 0.996108C11.0633 4.06023 11.0635 7.12414 11.0626 10.1878Z" fill="#7A5DF8"/>
<path d="M19.907 9.87355C19.8765 12.504 19.1007 14.5626 17.579 16.3387C17.357 16.5984 17.0396 16.6425 16.7825 16.416C16.4869 16.1525 16.2066 15.8722 15.9431 15.5766C15.7399 15.3513 15.7789 15.0994 15.9853 14.7976C16.2989 14.3431 16.6559 13.9056 16.8942 13.4135C18.0705 11.0025 17.9562 8.63232 16.5761 6.33034C16.4004 6.05805 16.2108 5.795 16.008 5.54223C15.7263 5.16636 15.7367 4.93136 16.0606 4.60287C16.2722 4.38929 16.4813 4.17247 16.7001 3.96603C17.0175 3.66676 17.3382 3.69402 17.6186 4.02251C18.6989 5.2897 19.4188 6.73412 19.7252 8.372C19.8349 8.96211 19.8706 9.56714 19.907 9.87355Z" fill="#7A5DF8"/>
<path d="M15.485 10.0735C15.4707 11.255 15.1474 12.2541 14.4879 13.1389C14.2282 13.4889 13.8718 13.5148 13.5556 13.2091C13.3401 13 13.1285 12.7858 12.9168 12.5722C12.5923 12.2476 12.5715 12.0633 12.8149 11.6718C13.3479 10.8142 13.4089 9.91902 13.0064 8.99979C12.937 8.84139 12.8331 8.69857 12.7468 8.54536C12.602 8.28569 12.6091 8.0825 12.8071 7.86957C13.0707 7.58523 13.3434 7.30868 13.629 7.04706C13.8848 6.81271 14.2366 6.86139 14.4593 7.15158C14.9941 7.84407 15.3321 8.66807 15.4376 9.53666C15.4655 9.7418 15.4746 9.94759 15.485 10.0735Z" fill="#7A5DF8"/>
</svg>
