<svg width="19" height="18" viewBox="0 0 19 18" fill="none" xmlns="http://www.w3.org/2000/svg">
<path d="M4.16658 10.9648H2.89485C2.73965 10.9648 2.59082 11.0265 2.48108 11.1362C2.37134 11.246 2.30969 11.3948 2.30969 11.55C2.30969 11.7052 2.37134 11.854 2.48108 11.9638C2.59082 12.0735 2.73965 12.1352 2.89485 12.1352H4.16658C4.32177 12.1352 4.47061 12.0735 4.58035 11.9638C4.69009 11.854 4.75174 11.7052 4.75174 11.55C4.75174 11.3948 4.69009 11.246 4.58035 11.1362C4.47061 11.0265 4.32177 10.9648 4.16658 10.9648Z" fill="#B0AED7"/>
<path d="M4.16658 2.53516H2.89485C2.818 2.53516 2.74191 2.55029 2.67092 2.5797C2.59992 2.60911 2.53542 2.65221 2.48108 2.70654C2.42674 2.76088 2.38364 2.82539 2.35423 2.89638C2.32483 2.96738 2.30969 3.04347 2.30969 3.12031C2.30969 3.19715 2.32483 3.27325 2.35423 3.34424C2.38364 3.41523 2.42674 3.47974 2.48108 3.53408C2.53542 3.58841 2.59992 3.63152 2.67092 3.66092C2.74191 3.69033 2.818 3.70546 2.89485 3.70546H4.16658C4.32177 3.70546 4.47061 3.64381 4.58035 3.53408C4.69009 3.42434 4.75174 3.2755 4.75174 3.12031C4.75174 2.96512 4.69009 2.81628 4.58035 2.70654C4.47061 2.59681 4.32177 2.53516 4.16658 2.53516Z" fill="#B0AED7"/>
<path d="M7.57612 12.1352H8.84786C9.00305 12.1352 9.15189 12.0735 9.26162 11.9638C9.37136 11.854 9.43301 11.7052 9.43301 11.55C9.43301 11.3948 9.37136 11.246 9.26162 11.1362C9.15189 11.0265 9.00305 10.9648 8.84786 10.9648H7.57612C7.42093 10.9648 7.27209 11.0265 7.16235 11.1362C7.05262 11.246 6.99097 11.3948 6.99097 11.55C6.99097 11.7052 7.05262 11.854 7.16235 11.9638C7.27209 12.0735 7.42093 12.1352 7.57612 12.1352Z" fill="#B0AED7"/>
<path d="M7.57612 6.43593H8.84786C9.00305 6.43593 9.15189 6.37428 9.26162 6.26455C9.37136 6.15481 9.43301 6.00597 9.43301 5.85078C9.43301 5.69559 9.37136 5.54675 9.26162 5.43701C9.15189 5.32727 9.00305 5.26563 8.84786 5.26563H7.57612C7.42093 5.26562 7.27209 5.32727 7.16235 5.43701C7.05262 5.54675 6.99097 5.69559 6.99097 5.85078C6.99097 6.00597 7.05262 6.15481 7.16235 6.26455C7.27209 6.37428 7.42093 6.43593 7.57612 6.43593Z" fill="#B0AED7"/>
<path d="M13.5291 2.53516H12.2574C12.1022 2.53516 11.9534 2.59681 11.8436 2.70654C11.7339 2.81628 11.6722 2.96512 11.6722 3.12031C11.6722 3.2755 11.7339 3.42434 11.8436 3.53408C11.9534 3.64381 12.1022 3.70546 12.2574 3.70546H13.5291C13.6843 3.70546 13.8332 3.64381 13.9429 3.53408C14.0526 3.42434 14.1143 3.2755 14.1143 3.12031C14.1143 2.96512 14.0526 2.81628 13.9429 2.70654C13.8332 2.59681 13.6843 2.53516 13.5291 2.53516Z" fill="#B0AED7"/>
<path d="M15.7995 8.05562V1.36536C15.7995 1.00324 15.6557 0.655959 15.3996 0.399905C15.1436 0.14385 14.7963 0 14.4341 0H11.3504C10.9883 0 10.641 0.14385 10.3849 0.399905C10.1289 0.655959 9.98503 1.00324 9.98503 1.36536V2.73072H6.43704V1.36536C6.43704 1.00324 6.29319 0.655959 6.03714 0.399905C5.78108 0.14385 5.4338 0 5.07168 0H1.98792C1.6258 0 1.27852 0.14385 1.02246 0.399905C0.766409 0.655959 0.622559 1.00324 0.622559 1.36536V13.3045C0.622559 13.6666 0.766409 14.0139 1.02246 14.2699C1.27852 14.526 1.6258 14.6698 1.98792 14.6698H10.2659C10.6255 15.3382 11.1434 15.9083 11.7743 16.3302C12.4052 16.7522 13.1299 17.013 13.885 17.09C14.64 17.1669 15.4024 17.0577 16.1055 16.7717C16.8086 16.4858 17.4308 16.0319 17.9179 15.4498C18.4049 14.8676 18.7418 14.175 18.8992 13.4325C19.0565 12.69 19.0295 11.9203 18.8205 11.1907C18.6114 10.461 18.2268 9.79376 17.7001 9.24722C17.1735 8.70069 16.5209 8.29155 15.7995 8.05562ZM5.26673 13.4995H1.98792C1.93619 13.4995 1.88658 13.479 1.85 13.4424C1.81342 13.4058 1.79287 13.3562 1.79287 13.3045V1.36536C1.79287 1.31363 1.81342 1.26402 1.85 1.22744C1.88658 1.19086 1.93619 1.17031 1.98792 1.17031H5.07168C5.12341 1.17031 5.17302 1.19086 5.2096 1.22744C5.24618 1.26402 5.26673 1.31363 5.26673 1.36536V13.4995ZM9.98503 10.8975C9.68417 11.7318 9.62933 12.635 9.82704 13.4995H6.43704V3.90103H9.98503V10.8975ZM11.1553 1.36536C11.1553 1.31363 11.1759 1.26402 11.2125 1.22744C11.249 1.19086 11.2987 1.17031 11.3504 1.17031H14.4341C14.4859 1.17031 14.5355 1.19086 14.5721 1.22744C14.6087 1.26402 14.6292 1.31363 14.6292 1.36536V7.83327C14.5375 7.83327 14.4478 7.83327 14.3542 7.83327C13.1617 7.83261 12.0151 8.29239 11.1534 9.1167L11.1553 1.36536ZM14.3561 15.9435C13.6691 15.9435 12.9974 15.7398 12.4262 15.3581C11.8549 14.9763 11.4096 14.4338 11.1467 13.799C10.8838 13.1643 10.815 12.4658 10.949 11.7919C11.0831 11.1181 11.4139 10.4991 11.8997 10.0132C12.3856 9.52741 13.0045 9.19656 13.6784 9.06252C14.3523 8.92848 15.0508 8.99728 15.6855 9.2602C16.3203 9.52313 16.8628 9.96839 17.2445 10.5397C17.6263 11.1109 17.83 11.7826 17.83 12.4696C17.829 13.3906 17.4626 14.2736 16.8114 14.9249C16.1601 15.5761 15.2771 15.9425 14.3561 15.9435Z" fill="#B0AED7"/>
<path d="M15.7527 10.9441L13.7456 12.9492L12.8172 12.0207C12.7063 11.9174 12.5596 11.8611 12.408 11.8638C12.2564 11.8665 12.1117 11.9279 12.0045 12.0351C11.8973 12.1423 11.8359 12.2869 11.8332 12.4385C11.8305 12.5901 11.8868 12.7368 11.9902 12.8478L13.3321 14.1897C13.4419 14.2993 13.5906 14.3608 13.7456 14.3608C13.9007 14.3608 14.0494 14.2993 14.1592 14.1897L16.5778 11.7711C16.6353 11.7175 16.6814 11.6529 16.7134 11.5811C16.7454 11.5093 16.7626 11.4319 16.7639 11.3533C16.7653 11.2747 16.7509 11.1967 16.7214 11.1238C16.692 11.051 16.6482 10.9848 16.5926 10.9292C16.5371 10.8736 16.4709 10.8298 16.398 10.8004C16.3252 10.771 16.2471 10.7565 16.1686 10.7579C16.09 10.7593 16.0125 10.7765 15.9407 10.8085C15.8689 10.8405 15.8043 10.8866 15.7508 10.9441H15.7527Z" fill="#B0AED7"/>
</svg>
