<svg width="18" height="18" viewBox="0 0 18 18" fill="none" xmlns="http://www.w3.org/2000/svg">
<path d="M0 5.27344H15.8338V8.89842C13.8897 8.15653 12.055 8.3406 10.4304 9.65896C8.81152 10.9728 8.2449 12.7208 8.562 14.7934H8.39799C6.1674 14.7934 3.93668 14.7934 1.70585 14.7934C0.889704 14.7934 0.284719 14.3538 0.0591259 13.6049C0.0376576 13.5345 0.0197086 13.461 0 13.3888L0 5.27344ZM3.72423 6.36234C3.39059 6.36234 3.05554 6.36058 2.72331 6.36234C2.38123 6.3648 2.14472 6.5816 2.14437 6.89025C2.14402 7.1989 2.38087 7.4157 2.72296 7.41816C3.39024 7.42027 4.05763 7.42027 4.72515 7.41816C5.06723 7.41816 5.30374 7.1989 5.30374 6.89025C5.30374 6.5816 5.06758 6.36621 4.7255 6.36234C4.39186 6.36058 4.05822 6.36234 3.72423 6.36234ZM7.92675 7.41605C8.26038 7.41605 8.59543 7.41605 8.92801 7.41605C9.28312 7.41429 9.52244 7.1982 9.51998 6.88532C9.51716 6.57878 9.28101 6.3641 8.93717 6.36304C8.26965 6.3614 7.60226 6.3614 6.93498 6.36304C6.5943 6.36304 6.3578 6.58617 6.36061 6.89342C6.36343 7.20066 6.59958 7.41323 6.94343 7.41535C7.27108 7.41746 7.59909 7.41605 7.92675 7.41605ZM12.1659 6.36234C11.8262 6.36234 11.4866 6.36023 11.1473 6.36234C10.8081 6.36445 10.5719 6.58934 10.5765 6.89623C10.5811 7.19644 10.8148 7.41323 11.1456 7.41429C11.8187 7.4171 12.492 7.4171 13.1654 7.41429C13.5039 7.41429 13.7408 7.18764 13.7359 6.8804C13.7313 6.58019 13.498 6.36516 13.1668 6.36234C12.8356 6.35952 12.4995 6.36234 12.1659 6.36234ZM3.71402 9.52347C4.05365 9.52347 4.39327 9.52558 4.73289 9.52347C5.07251 9.52136 5.30831 9.29717 5.30374 8.98993C5.29951 8.68972 5.06583 8.47257 4.73535 8.47152C4.06198 8.4687 3.38871 8.4687 2.71557 8.47152C2.37665 8.47152 2.14015 8.69817 2.14437 9.00506C2.14895 9.30526 2.38228 9.521 2.71311 9.52382C3.04393 9.52663 3.38038 9.52347 3.71402 9.52347ZM7.93942 9.52347C8.27306 9.52347 8.6081 9.52523 8.94033 9.52347C9.28312 9.521 9.51927 9.30456 9.51998 8.99767C9.52068 8.69078 9.28383 8.47187 8.94209 8.46976C8.27481 8.46765 7.60742 8.46765 6.93991 8.46976C6.59747 8.46976 6.36096 8.68831 6.36061 8.9952C6.36026 9.3021 6.59676 9.51995 6.9385 9.52311C7.27214 9.52523 7.60578 9.52347 7.93942 9.52347ZM3.73725 10.5775C3.40361 10.5775 3.06857 10.5775 2.73633 10.5775C2.38123 10.5775 2.14156 10.7954 2.14437 11.1083C2.14719 11.4148 2.38334 11.6291 2.72754 11.6302C3.38918 11.6323 4.05071 11.6323 4.71213 11.6302C5.06723 11.6302 5.30655 11.4123 5.30374 11.0995C5.30092 10.7866 5.06301 10.5786 4.70333 10.5772C4.3813 10.5765 4.05928 10.5775 3.73725 10.5775Z" fill="#7A5DF8"/>
<path d="M13.386 17.992C12.9961 17.8948 12.5935 17.8322 12.2187 17.6949C10.4016 17.0305 9.24547 14.9987 9.57735 13.093C9.88671 11.315 11.0977 10.0029 12.8648 9.62811C14.3648 9.31137 15.6979 9.71575 16.7685 10.8103C17.8919 11.9583 18.2685 13.3555 17.8082 14.9009C17.3091 16.5765 16.1512 17.5809 14.4317 17.9276C14.3176 17.9504 14.2029 17.9712 14.0885 17.9927L13.386 17.992ZM14.2638 13.2151C14.2638 12.6756 14.2677 12.161 14.2638 11.6472C14.2606 11.3347 14.0283 11.1059 13.7341 11.1084C13.665 11.1086 13.5967 11.1226 13.5331 11.1495C13.4695 11.1763 13.4118 11.2155 13.3634 11.2648C13.315 11.3141 13.2769 11.3725 13.2513 11.4366C13.2256 11.5008 13.2129 11.5693 13.2139 11.6384C13.2086 12.3406 13.2086 13.0426 13.2139 13.7444C13.2168 14.0383 13.4325 14.2618 13.7232 14.2646C14.4369 14.2723 15.1508 14.2723 15.8648 14.2646C16.0896 14.2625 16.2519 14.1386 16.335 13.9288C16.4729 13.5808 16.2199 13.2214 15.8282 13.2168C15.3133 13.2105 14.7994 13.2151 14.2638 13.2151Z" fill="#7A5DF8"/>
<path d="M0 2.46255C0.0770749 2.13595 0.193567 1.83258 0.428663 1.57813C0.716198 1.26948 1.17513 1.06042 1.61083 1.07204C1.63793 1.72876 1.89238 2.28201 2.40797 2.69976C2.80461 3.02073 3.26424 3.16995 3.77491 3.16397C4.65476 3.15341 5.75704 2.49071 5.84713 1.06641H10.0352C10.1214 2.47417 11.2044 3.14602 12.0902 3.16291C12.68 3.17418 13.1921 2.97955 13.6183 2.57095C14.0445 2.16235 14.2458 1.65203 14.2705 1.07063C15.0982 1.05831 15.7743 1.68265 15.832 2.54702C15.8672 3.09429 15.8387 3.64542 15.8387 4.21873H0V2.46255Z" fill="#7A5DF8"/>
<path d="M3.73586 0.0017206C3.9055 0.0017206 4.07513 -0.00215075 4.24406 0.0017206C4.55482 0.011223 4.76775 0.224851 4.7769 0.535966C4.78183 0.711936 4.78288 0.887906 4.7769 1.06176C4.75473 1.65725 4.29685 2.10843 3.72108 2.10632C3.14531 2.10421 2.69236 1.65584 2.67195 1.05754C2.66596 0.888258 2.66737 0.718623 2.67195 0.549339C2.67863 0.221331 2.89437 0.00981522 3.22766 0.0034803C3.39729 0.0017206 3.56658 0.0017206 3.73586 0.0017206Z" fill="#7A5DF8"/>
<path d="M12.162 0.00562685C12.3316 0.00562685 12.5009 0.0017555 12.6702 0.00562685C12.9827 0.0140734 13.1981 0.225589 13.2086 0.533537C13.2143 0.714082 13.2153 0.895683 13.2086 1.07658C13.1829 1.66362 12.7296 2.10741 12.1602 2.10952C11.5908 2.11164 11.1339 1.66819 11.1065 1.08221C11.0977 0.895683 11.0984 0.708451 11.1065 0.521571C11.108 0.385984 11.1625 0.256359 11.2582 0.160314C11.3539 0.0642688 11.4833 0.00939609 11.6189 0.00738655C11.7998 0.000347744 11.9811 0.00738655 12.162 0.00738655V0.00562685Z" fill="#7A5DF8"/>
</svg>
