<svg width="39" height="35" viewBox="0 0 39 35" fill="none" xmlns="http://www.w3.org/2000/svg">
<path d="M0 12.834C0.137362 12.0648 0.21978 11.2803 0.421245 10.5274C1.38075 6.92846 3.51444 4.17104 6.70532 2.3141C11.9373 -0.721099 17.2761 -0.738397 22.6272 2.07296C22.7472 2.13604 22.8612 2.21337 23.0555 2.3314C22.4084 2.41178 21.8457 2.45757 21.2912 2.55423C16.0958 3.45981 11.8885 5.96387 9.18294 10.5477C6.1691 15.6688 6.25864 20.912 9.1575 26.1032C9.20736 26.1918 9.25925 26.2762 9.31318 26.3637C9.32201 26.3849 9.32816 26.4071 9.33149 26.4299C9.31928 26.436 9.303 26.4502 9.29791 26.4472C8.7159 26.0819 8.22242 26.3454 7.6923 26.6201C5.77024 27.6224 3.83394 28.5961 1.89967 29.5709C1.14876 29.9494 0.349002 29.6207 0.192307 28.8515C0.153958 28.5901 0.1798 28.3233 0.267602 28.0741C0.939831 25.9211 1.62427 23.7722 2.32092 21.6273C2.36523 21.5191 2.38047 21.4013 2.36512 21.2854C2.34977 21.1696 2.30436 21.0598 2.23341 20.9669C1.02062 19.2039 0.27557 17.1617 0.0681725 15.0318C0.0518582 14.9328 0.0290855 14.8349 0 14.7388L0 12.834Z" fill="#9494AE"/>
<path d="M24.5422 4.59766C29.0833 4.73705 33.252 6.52073 36.332 10.493C37.9808 12.6277 38.9126 15.229 38.9941 17.925C39.0756 20.6211 38.3026 23.2739 36.7858 25.5042C36.7064 25.6059 36.6553 25.7266 36.6374 25.8543C36.6196 25.982 36.6356 26.1122 36.684 26.2317C37.382 28.3756 38.0617 30.5256 38.7424 32.6756C38.9856 33.4438 38.6783 34.1265 37.9732 34.2568C37.6513 34.2997 37.3239 34.2444 37.034 34.098C34.9692 33.0724 32.9128 32.0284 30.8649 30.9662C30.7321 30.8893 30.5833 30.8445 30.4301 30.8353C30.277 30.8261 30.1238 30.8528 29.9828 30.9132C24.3387 32.9482 19.0467 32.3011 14.3133 28.5567C10.8538 25.8176 9.10978 22.1332 9.32142 17.6827C9.52492 13.4489 11.5172 10.1186 14.8871 7.60946C17.6222 5.57751 20.7388 4.64853 24.5422 4.59766ZM20.6391 18.3247C20.6405 18.0985 20.5746 17.877 20.4499 17.6882C20.3252 17.4995 20.1472 17.3521 19.9386 17.2647C19.7299 17.1772 19.5 17.1538 19.278 17.1973C19.056 17.2408 18.8519 17.3492 18.6916 17.5089C18.5314 17.6686 18.4222 17.8723 18.3779 18.0941C18.3336 18.316 18.3562 18.546 18.4429 18.755C18.5296 18.9639 18.6764 19.1424 18.8647 19.2678C19.053 19.3932 19.2743 19.4599 19.5005 19.4593C19.8006 19.4556 20.0875 19.335 20.3001 19.1231C20.5127 18.9113 20.6343 18.6249 20.6391 18.3247ZM24.063 19.4593C24.2892 19.4603 24.5106 19.394 24.6991 19.269C24.8876 19.1439 25.0347 18.9657 25.1218 18.7569C25.2088 18.548 25.2319 18.3181 25.188 18.0962C25.1441 17.8742 25.0353 17.6703 24.8753 17.5104C24.7153 17.3504 24.5114 17.2416 24.2895 17.1977C24.0676 17.1538 23.8376 17.1768 23.6288 17.2639C23.42 17.3509 23.2417 17.498 23.1167 17.6865C22.9916 17.8751 22.9254 18.0965 22.9264 18.3227C22.9309 18.6227 23.052 18.9092 23.2642 19.1214C23.4764 19.3336 23.7629 19.4548 24.063 19.4593ZM29.7782 18.3237C29.7793 18.0978 29.7131 17.8766 29.5883 17.6883C29.4634 17.5 29.2855 17.353 29.077 17.266C28.8684 17.179 28.6388 17.1559 28.4171 17.1995C28.1954 17.2432 27.9917 17.3518 27.8318 17.5114C27.6719 17.671 27.563 17.8745 27.5189 18.0961C27.4749 18.3177 27.4976 18.5474 27.5842 18.7561C27.6709 18.9647 27.8175 19.143 28.0056 19.2682C28.1937 19.3933 28.4147 19.4599 28.6407 19.4593C28.9408 19.4553 29.2276 19.3345 29.44 19.1224C29.6524 18.9104 29.7738 18.6238 29.7782 18.3237Z" fill="#9494AE"/>
</svg>
