<svg width="17" height="15" viewBox="0 0 17 15" fill="none" xmlns="http://www.w3.org/2000/svg">
<path d="M16.6598 5.53537C16.3172 5.04472 15.7605 4.75174 15.1706 4.75174H14.5772V4.14085C14.5772 3.01784 13.6835 2.1043 12.5849 2.1043H7.66189C7.42234 2.1043 7.20055 1.97186 7.08304 1.75855L6.68395 1.03339C6.33299 0.395989 5.66763 0 4.94766 0H1.99232C0.893762 0 0 0.91169 0 2.03218V12.9636C0 14.0865 0.893762 15 1.99232 15H12.393C13.5272 15 14.5368 14.2634 14.9052 13.1671C15.0244 12.8124 14.8399 12.4264 14.4929 12.3046C14.1461 12.1827 13.7683 12.3714 13.6491 12.726C13.4648 13.2741 12.96 13.6425 12.393 13.6425H3.88529C3.88736 13.6366 3.88957 13.6311 3.89152 13.6254L6.3016 6.45541C6.37112 6.24833 6.56178 6.10926 6.77578 6.10926H15.1706C15.3347 6.10926 15.4836 6.18761 15.5788 6.32416C15.6741 6.46058 15.6982 6.62987 15.6449 6.78856L14.6812 9.65527C14.5621 10.0099 14.7467 10.3961 15.0936 10.5179C15.4405 10.6397 15.8183 10.451 15.9374 10.0965L16.9011 7.22962C17.0928 6.65943 17.0025 6.02601 16.6598 5.53537ZM5.04533 6.01421L2.63524 13.1842C2.54316 13.4582 2.29076 13.6425 2.00724 13.6425H1.99232C1.62618 13.6425 1.32826 13.338 1.32826 12.9636V2.03218C1.32826 1.66019 1.62618 1.35766 1.99232 1.35766H4.94766C5.18864 1.35766 5.4103 1.48851 5.52638 1.69929L5.9256 2.42432C6.27799 3.06438 6.94335 3.46196 7.66189 3.46196H12.5849C12.9512 3.46196 13.2491 3.76647 13.2491 4.14072V4.75174H6.77578C5.9946 4.75174 5.29928 5.25909 5.04533 6.01421Z" fill="#B0AED7"/>
</svg>
