<svg width="18" height="18" viewBox="0 0 18 18" fill="none" xmlns="http://www.w3.org/2000/svg">
<path d="M18 0.406262V13.6603C17.8807 13.9595 17.6586 14.0703 17.3396 14.0703C11.7794 14.0656 6.21871 14.0643 0.657534 14.0665C0.187867 14.0665 0 13.8763 0 13.4052V0.679609C0 0.182701 0.178474 0.00422701 0.676321 0.00422701C6.22497 0.00422701 11.7735 0.002818 17.3218 0C17.6473 0 17.8769 0.0986301 18 0.406262ZM10.7986 11.0081H11.0372C12.4255 11.0081 13.8142 11.0081 15.2031 11.0081C15.2909 11.01 15.3787 11.0048 15.4657 10.9926C15.5849 10.972 15.6931 10.9102 15.7715 10.8181C15.8499 10.7259 15.8934 10.6091 15.8945 10.4881C15.8987 10.1697 15.6667 9.95507 15.3088 9.9546C13.8848 9.9546 12.4601 9.9546 11.0348 9.9546H10.7953C10.7953 9.809 10.7953 9.68689 10.7953 9.56524C10.7901 9.23648 10.5732 9.0054 10.2697 9.00634C9.96634 9.00728 9.74888 9.23695 9.74137 9.56712C9.73855 9.68877 9.74137 9.81135 9.74137 9.9546H2.78935C2.71915 9.95256 2.64888 9.95475 2.57894 9.96117C2.45262 9.97357 2.33518 10.0317 2.24867 10.1245C2.16217 10.2174 2.11255 10.3387 2.10915 10.4656C2.10575 10.5925 2.14879 10.7162 2.23019 10.8136C2.3116 10.911 2.42576 10.9753 2.55123 10.9944C2.64459 11.0072 2.73883 11.0124 2.83303 11.0099C5.05957 11.0099 7.28611 11.0099 9.51264 11.0099H9.74748C9.74748 11.1715 9.7409 11.3054 9.74748 11.4387C9.76532 11.7422 9.99593 11.9596 10.2852 11.9554C10.5746 11.9512 10.7911 11.7271 10.7991 11.42C10.8023 11.2894 10.7986 11.1616 10.7986 11.0081ZM5.44814 6.00188C6.02583 6.16814 6.49503 6.6674 6.60728 7.24368C6.63922 7.409 6.6364 7.5809 6.64814 7.74951C6.65317 7.88875 6.7128 8.02042 6.81413 8.11604C6.91547 8.21167 7.05037 8.26356 7.18967 8.26051C7.32661 8.25952 7.45755 8.2042 7.55372 8.1067C7.64989 8.00921 7.70342 7.87753 7.70254 7.74059C7.72227 6.56877 7.20282 5.71256 6.17847 5.1546C6.13479 5.13112 6.09159 5.10763 6.04509 5.08039C6.70685 4.32188 6.54622 3.38959 6.03569 2.87061C5.7711 2.60038 5.41845 2.43389 5.04166 2.40132C4.66487 2.36875 4.28888 2.47225 3.98184 2.69307C3.66025 2.91669 3.4372 3.25563 3.35906 3.63945C3.2454 4.18427 3.39569 4.66427 3.7672 5.08462C3.71225 5.11327 3.67609 5.13159 3.64039 5.15037C2.60712 5.70599 2.08204 6.56454 2.10552 7.74481C2.10674 7.87351 2.15544 7.99723 2.24227 8.09223C2.32911 8.18722 2.44796 8.24681 2.57603 8.25956C2.7041 8.27231 2.83237 8.23732 2.93623 8.16131C3.04009 8.08529 3.11222 7.9736 3.13879 7.84767C3.15403 7.76149 3.1608 7.67403 3.15898 7.58654C3.16244 7.25087 3.26651 6.92395 3.45775 6.64807C3.64899 6.37218 3.91859 6.16001 4.2317 6.03898C4.27311 6.02559 4.3153 6.01477 4.35804 6.00658C4.42004 6.52791 4.56705 6.72564 4.88971 6.73362C5.21237 6.7416 5.35843 6.55609 5.44814 6.00188ZM12.3213 2.64094H9.73808C9.57417 2.64094 9.40932 2.63249 9.24634 2.64564C9.16406 2.65097 9.08426 2.67592 9.0136 2.7184C8.94293 2.76088 8.88346 2.81965 8.84016 2.88981C8.79685 2.95997 8.77096 3.03947 8.76465 3.12168C8.75835 3.20388 8.77181 3.28641 8.80391 3.36235C8.91241 3.61879 9.12611 3.69628 9.38771 3.69628C11.3387 3.6944 13.2897 3.6944 15.2407 3.69628C15.3051 3.69692 15.3693 3.69189 15.4328 3.68125C15.552 3.66046 15.6601 3.59849 15.7383 3.50613C15.8165 3.41377 15.8598 3.2969 15.8607 3.17589C15.8649 2.86309 15.6357 2.64423 15.2919 2.64329C14.3014 2.63953 13.3113 2.64094 12.3213 2.64094ZM11.109 4.75068C10.5229 4.75068 9.93722 4.75068 9.35155 4.75068C9.00446 4.75068 8.76775 4.9611 8.76117 5.26732C8.7546 5.57354 8.99178 5.8018 9.33417 5.80321C10.5115 5.80791 11.6891 5.80791 12.867 5.80321C12.989 5.79963 13.1081 5.76469 13.2127 5.70176C13.4038 5.58716 13.479 5.33965 13.416 5.13065C13.3841 5.01942 13.3159 4.92204 13.2223 4.85397C13.1287 4.78591 13.0151 4.75104 12.8994 4.75491C12.3053 4.74787 11.7065 4.75068 11.109 4.75068ZM11.109 6.85996H10.335C9.97761 6.85996 9.6202 6.85292 9.26325 6.86419C9.12976 6.86876 9.00316 6.92453 8.90968 7.01993C8.8162 7.11533 8.76303 7.24304 8.76117 7.37659C8.7606 7.50696 8.80824 7.63295 8.89494 7.73031C8.98164 7.82767 9.10128 7.88955 9.23084 7.90403C9.30052 7.91202 9.37066 7.91532 9.44078 7.91389C10.5483 7.91389 11.6556 7.91389 12.7627 7.91389C12.8446 7.91533 12.9264 7.91015 13.0074 7.8984C13.092 7.88568 13.1719 7.85127 13.2392 7.79851C13.3065 7.74575 13.3591 7.67644 13.3916 7.59734C13.5527 7.24133 13.2977 6.86513 12.8844 6.86137C12.2917 6.85714 11.6999 6.85996 11.1086 6.85996H11.109Z" fill="#7A5DF8"/>
<path d="M12.1644 15.1367V16.4137C12.2358 16.417 12.2978 16.4222 12.3598 16.4222C12.7167 16.4222 13.0742 16.4222 13.4316 16.4222C13.7542 16.4255 13.983 16.6359 13.9923 16.9294C14.0017 17.223 13.7772 17.4545 13.4475 17.4743C13.4067 17.4766 13.3653 17.4743 13.3245 17.4743C10.4439 17.4743 7.56182 17.4743 4.67838 17.4743C4.57317 17.4776 4.46803 17.466 4.36605 17.44C4.24964 17.4013 4.1506 17.3228 4.08635 17.2183C4.02209 17.1138 3.99674 16.99 4.01474 16.8687C4.03275 16.7474 4.09296 16.6363 4.18479 16.5549C4.27662 16.4736 4.39419 16.4273 4.51681 16.4241C4.88597 16.4152 5.25513 16.4213 5.62382 16.4208H5.83094V15.1367H12.1644Z" fill="#7A5DF8"/>
<path d="M4.90707 4.49742C4.83704 4.50007 4.76718 4.48865 4.70163 4.46383C4.63609 4.43901 4.57619 4.4013 4.52547 4.35293C4.47476 4.30455 4.43426 4.2465 4.40638 4.1822C4.37849 4.1179 4.36378 4.04866 4.36312 3.97858C4.36246 3.9085 4.37586 3.839 4.40253 3.77418C4.42921 3.70937 4.4686 3.65057 4.5184 3.60125C4.56819 3.55193 4.62738 3.51309 4.69244 3.48704C4.75751 3.461 4.82713 3.44826 4.89721 3.44959C4.96724 3.44694 5.0371 3.45836 5.10264 3.48318C5.16819 3.508 5.22809 3.54571 5.2788 3.59409C5.32952 3.64246 5.37002 3.70052 5.3979 3.76481C5.42579 3.82911 5.4405 3.89835 5.44116 3.96843C5.44182 4.03852 5.42841 4.10802 5.40174 4.17283C5.37507 4.23764 5.33567 4.29645 5.28588 4.34577C5.23608 4.39509 5.1769 4.43392 5.11184 4.45997C5.04677 4.48602 4.97714 4.49875 4.90707 4.49742Z" fill="#7A5DF8"/>
</svg>
