<svg width="17" height="18" viewBox="0 0 17 18" fill="none" xmlns="http://www.w3.org/2000/svg">
<path d="M4.08707 13.3674C3.1255 13.3674 2.18012 13.3674 1.23323 13.3674C0.680077 13.3674 0.214981 13.0293 0.0626482 12.5161C0.0231935 12.3765 0.0037681 12.232 0.00495399 12.087C0.00039919 10.8142 0.00546008 9.54237 0.00039919 8.27057C0.00039919 7.97956 0.0854222 7.74575 0.361747 7.61973C0.638072 7.49372 0.867836 7.58785 1.08545 7.7827C1.35208 8.02672 1.6972 8.16732 2.05845 8.17909C2.4197 8.19087 2.77324 8.07303 3.05519 7.84688C3.33715 7.62074 3.5289 7.3012 3.59582 6.946C3.66273 6.59081 3.60038 6.2234 3.42004 5.91017C2.97165 5.13433 1.86281 4.95416 1.14264 5.54072C1.09203 5.5807 1.04902 5.62574 0.999419 5.66471C0.804069 5.81654 0.590499 5.85905 0.361241 5.75328C0.254162 5.71028 0.16274 5.63565 0.0991727 5.53935C0.035605 5.44305 0.00291369 5.32965 0.00546008 5.21429C0.00039919 3.85949 -0.00516779 2.5052 0.00900271 1.15141C0.0150758 0.535498 0.542421 0.0147328 1.15833 0.00916584C2.50352 -0.00348639 3.84668 0.0015745 5.19389 0.0061293C5.31227 0.0021893 5.42894 0.0352712 5.52764 0.100767C5.62633 0.166262 5.70214 0.26091 5.74451 0.371526C5.85484 0.62457 5.79512 0.853829 5.60787 1.05171C5.17061 1.51883 5.04459 2.05832 5.2536 2.6636C5.35182 2.93907 5.52938 3.1793 5.7639 3.35402C5.99842 3.52874 6.27941 3.63013 6.57146 3.64542C7.20053 3.67578 7.77696 3.34682 8.03355 2.78506C8.30431 2.19547 8.22688 1.6413 7.81897 1.13572C7.79114 1.10131 7.75875 1.07094 7.72889 1.03805C7.5472 0.835609 7.49052 0.608375 7.60743 0.355837C7.71927 0.112914 7.92019 0.0015745 8.18386 0.0015745C9.0874 0.0015745 9.9906 0.0015745 10.8935 0.0015745C11.3039 0.0015745 11.7148 -0.00196812 12.1253 0.0015745C12.2851 0.000430207 12.4436 0.0310659 12.5914 0.0917007C12.7393 0.152335 12.8737 0.24176 12.9867 0.354776C13.0997 0.467792 13.1891 0.602145 13.2498 0.750025C13.3104 0.897906 13.341 1.05636 13.3399 1.21619C13.346 2.10235 13.3399 2.9875 13.3399 3.87366V4.08622C14.7063 3.73196 15.8324 4.06547 16.5789 5.27907C17.1862 6.26848 17.1254 7.29938 16.469 8.26095C15.797 9.24479 14.7413 9.57678 13.3384 9.27313V9.47556C13.3384 10.3423 13.3384 11.2091 13.3384 12.0758C13.3384 12.8471 12.8252 13.3588 12.0544 13.3603C11.1954 13.3603 10.3364 13.3603 9.47742 13.3603H9.26487C9.60546 14.7419 9.26942 15.8821 8.03203 16.6251C7.03554 17.2233 5.99705 17.16 5.0623 16.4687C4.01773 15.7005 3.74546 14.6326 4.08707 13.3674Z" fill="#7A5DF8"/>
</svg>
