<svg width="21" height="16" viewBox="0 0 21 16" fill="none" xmlns="http://www.w3.org/2000/svg">
<g opacity="0.5">
<path d="M19.3683 15.1431C19.4893 15.142 19.609 15.1168 19.7202 15.0689C19.8314 15.021 19.9318 14.9513 20.0157 14.864C20.0996 14.7767 20.1652 14.6735 20.2086 14.5604C20.2521 14.4474 20.2725 14.3268 20.2687 14.2058V0.93314C20.2719 0.812459 20.2511 0.692336 20.2074 0.579791C20.1637 0.467245 20.0981 0.364534 20.0142 0.277657C19.9304 0.190781 19.8301 0.121481 19.7192 0.0738081C19.6083 0.0261348 19.489 0.0010434 19.3683 0C19.1981 0.000928627 19.0313 0.0475754 18.8853 0.13506L8.86224 6.76936C8.71772 6.84712 8.59695 6.96256 8.51278 7.10344C8.4286 7.24432 8.38415 7.40537 8.38415 7.56949C8.38415 7.7336 8.4286 7.89465 8.51278 8.03553C8.59695 8.1764 8.71772 8.29185 8.86224 8.36961L18.8853 15.008C19.032 15.0939 19.1983 15.1404 19.3683 15.1431Z" fill="#7A5DF8"/>
<path d="M11.5103 15.1431C11.631 15.142 11.7503 15.1169 11.8612 15.0693C11.9721 15.0216 12.0724 14.9523 12.1563 14.8654C12.2401 14.7785 12.3058 14.6758 12.3494 14.5633C12.3931 14.4507 12.4139 14.3306 12.4107 14.2099V0.93314C12.4139 0.812459 12.3931 0.692336 12.3494 0.579791C12.3058 0.467245 12.2401 0.364534 12.1563 0.277657C12.0724 0.190781 11.9721 0.121481 11.8612 0.0738081C11.7503 0.0261348 11.631 0.0010434 11.5103 0C11.3401 0.000928627 11.1733 0.0475754 11.0273 0.13506L1.00427 6.76936C0.859747 6.84712 0.738982 6.96256 0.654804 7.10344C0.570625 7.24432 0.526175 7.40537 0.526175 7.56949C0.526175 7.7336 0.570625 7.89465 0.654804 8.03553C0.738982 8.1764 0.859747 8.29185 1.00427 8.36961L11.0273 15.008C11.174 15.0939 11.3404 15.1404 11.5103 15.1431Z" fill="#7A5DF8"/>
</g>
</svg>
