<svg width="20" height="16" viewBox="0 0 20 16" fill="none" xmlns="http://www.w3.org/2000/svg">
<g opacity="0.5">
<path d="M1.15787 15.147C1.03679 15.1459 0.917146 15.1207 0.805955 15.0728C0.694764 15.0249 0.594274 14.9552 0.510391 14.8679C0.426507 14.7806 0.360922 14.6774 0.317488 14.5643C0.274055 14.4513 0.25365 14.3308 0.257472 14.2097V0.937046C0.254205 0.816365 0.27502 0.696242 0.318703 0.583697C0.362386 0.471151 0.428061 0.36844 0.511889 0.281564C0.595717 0.194687 0.696018 0.125388 0.806932 0.0777144C0.917846 0.030041 1.03715 0.00494965 1.15787 0.00390625C1.32805 0.00483488 1.49484 0.0514817 1.64081 0.138966L11.6639 6.77326C11.8084 6.85102 11.9292 6.96647 12.0133 7.10735C12.0975 7.24823 12.142 7.40928 12.142 7.57339C12.142 7.7375 12.0975 7.89855 12.0133 8.03943C11.9292 8.18031 11.8084 8.29576 11.6639 8.37352L1.64081 15.0119C1.49415 15.0978 1.3278 15.1443 1.15787 15.147Z" fill="#7A5DF8"/>
<path d="M9.01584 15.147C8.89512 15.1459 8.77582 15.1208 8.66491 15.0732C8.55399 15.0255 8.45369 14.9562 8.36986 14.8693C8.28603 14.7824 8.22036 14.6797 8.17668 14.5672C8.13299 14.4546 8.11218 14.3345 8.11545 14.2138V0.937046C8.11218 0.816365 8.13299 0.696242 8.17668 0.583697C8.22036 0.471151 8.28603 0.36844 8.36986 0.281564C8.45369 0.194687 8.55399 0.125388 8.66491 0.0777144C8.77582 0.030041 8.89512 0.00494965 9.01584 0.00390625C9.18602 0.00483488 9.35282 0.0514817 9.49878 0.138966L19.5219 6.77326C19.6664 6.85102 19.7871 6.96647 19.8713 7.10735C19.9555 7.24823 19.9999 7.40928 19.9999 7.57339C19.9999 7.7375 19.9555 7.89855 19.8713 8.03943C19.7871 8.18031 19.6664 8.29576 19.5219 8.37352L9.49878 15.0119C9.35213 15.0978 9.18577 15.1443 9.01584 15.147Z" fill="#7A5DF8"/>
</g>
</svg>
