<svg width="13" height="16" viewBox="0 0 13 16" fill="none" xmlns="http://www.w3.org/2000/svg">
<path d="M1.31351 15.1431C1.19279 15.142 1.07349 15.1169 0.962574 15.0693C0.85166 15.0216 0.751358 14.9523 0.66753 14.8654C0.583702 14.7785 0.518028 14.6758 0.474345 14.5633C0.430662 14.4507 0.409846 14.3306 0.413114 14.2099V0.93314C0.409846 0.812459 0.430662 0.692336 0.474345 0.579791C0.518028 0.467245 0.583702 0.364534 0.66753 0.277657C0.751358 0.190781 0.85166 0.121481 0.962574 0.0738081C1.07349 0.0261348 1.19279 0.0010434 1.31351 0C1.48369 0.000928627 1.65048 0.0475754 1.79645 0.13506L11.8195 6.76936C11.964 6.84712 12.0848 6.96256 12.169 7.10344C12.2532 7.24432 12.2976 7.40537 12.2976 7.56949C12.2976 7.7336 12.2532 7.89465 12.169 8.03553C12.0848 8.1764 11.964 8.29185 11.8195 8.36961L1.79645 15.008C1.6498 15.0939 1.48344 15.1404 1.31351 15.1431Z" fill="#7A5DF8"/>
</svg>
