<svg width="26" height="25" viewBox="0 0 26 25" fill="none" xmlns="http://www.w3.org/2000/svg">
<path d="M2.31692 1.15485e-05H7.5936C7.94346 1.15485e-05 8.279 0.138995 8.52639 0.386387C8.77378 0.633779 8.91276 0.969315 8.91276 1.31918C8.91276 1.66905 8.77378 2.00458 8.52639 2.25197C8.279 2.49937 7.94346 2.63835 7.5936 2.63835H3.63609V6.59585C3.63609 6.94572 3.49711 7.28126 3.24972 7.52865C3.00232 7.77604 2.66679 7.91502 2.31692 7.91502C1.96706 7.91502 1.63152 7.77604 1.38413 7.52865C1.13674 7.28126 0.997753 6.94572 0.997753 6.59585V1.31918C0.997026 1.14574 1.03065 0.973874 1.09669 0.813497C1.16272 0.65312 1.25987 0.507407 1.38251 0.384766C1.50515 0.262124 1.65086 0.164983 1.81124 0.0989461C1.97162 0.0329092 2.14348 -0.00071567 2.31692 1.15485e-05Z" fill="#7A5DF8"/>
<path d="M25.4024 1.31918V6.59585C25.4024 6.94572 25.2634 7.28126 25.016 7.52865C24.7686 7.77604 24.4331 7.91502 24.0832 7.91502C23.7333 7.91502 23.3978 7.77604 23.1504 7.52865C22.903 7.28126 22.764 6.94572 22.764 6.59585V2.63835H18.8065C18.4567 2.63835 18.1211 2.49937 17.8737 2.25197C17.6263 2.00458 17.4874 1.66905 17.4874 1.31918C17.4874 0.969315 17.6263 0.633779 17.8737 0.386387C18.1211 0.138995 18.4567 1.15485e-05 18.8065 1.15485e-05H24.0832C24.2566 -0.00071567 24.4285 0.0329092 24.5889 0.0989461C24.7493 0.164983 24.895 0.262124 25.0176 0.384766C25.1403 0.507407 25.2374 0.65312 25.3034 0.813497C25.3695 0.973874 25.4031 1.14574 25.4024 1.31918Z" fill="#7A5DF8"/>
<path d="M2.31692 24.4033H7.5936C7.94346 24.4033 8.279 24.2643 8.52639 24.0169C8.77378 23.7695 8.91276 23.434 8.91276 23.0841C8.91276 22.7343 8.77378 22.3987 8.52639 22.1513C8.279 21.9039 7.94346 21.765 7.5936 21.765H3.63609V17.8075C3.63609 17.4576 3.49711 17.122 3.24972 16.8747C3.00232 16.6273 2.66679 16.4883 2.31692 16.4883C1.96706 16.4883 1.63152 16.6273 1.38413 16.8747C1.13674 17.122 0.997753 17.4576 0.997753 17.8075V23.0841C0.997026 23.2576 1.03065 23.4294 1.09669 23.5898C1.16272 23.7502 1.25987 23.8959 1.38251 24.0185C1.50515 24.1412 1.65086 24.2383 1.81124 24.3044C1.97162 24.3704 2.14348 24.404 2.31692 24.4033Z" fill="#7A5DF8"/>
<path d="M25.4024 23.0841V17.8075C25.4024 17.4576 25.2634 17.122 25.016 16.8747C24.7686 16.6273 24.4331 16.4883 24.0832 16.4883C23.7333 16.4883 23.3978 16.6273 23.1504 16.8747C22.903 17.122 22.764 17.4576 22.764 17.8075V21.765H18.8065C18.4567 21.765 18.1211 21.9039 17.8737 22.1513C17.6263 22.3987 17.4874 22.7343 17.4874 23.0841C17.4874 23.434 17.6263 23.7695 17.8737 24.0169C18.1211 24.2643 18.4567 24.4033 18.8065 24.4033H24.0832C24.2566 24.404 24.4285 24.3704 24.5889 24.3044C24.7493 24.2383 24.895 24.1412 25.0176 24.0185C25.1403 23.8959 25.2374 23.7502 25.3034 23.5898C25.3695 23.4294 25.4031 23.2576 25.4024 23.0841Z" fill="#7A5DF8"/>
</svg>
